<svg width="241.246094" height="305.905365" viewBox="0 0 241.246 305.905" fill="none" xmlns="http://www.w3.org/2000/svg" xmlns:xlink="http://www.w3.org/1999/xlink">
	<desc>
			Created with Pixso.
	</desc>
	<defs>
		<linearGradient id="paint_linear_1_1298_0" x1="124.829720" y1="99.601372" x2="132.315369" y2="89.335327" gradientUnits="userSpaceOnUse">
			<stop stop-color="#000000"/>
			<stop offset="1.000000" stop-color="#000000" stop-opacity="0.000000"/>
		</linearGradient>
	</defs>
	<g opacity="0.400000">
		<g opacity="0.450000">
			<path id="Path 10160" d="M160.891 27.7634L52.6479 27.7634C52.6479 22.4279 56.9744 18.1015 62.3098 18.1015C64.3765 18.1015 66.2915 18.7505 67.8618 19.8593C68.3926 8.80264 77.5281 0 88.7192 0C98.2407 0 106.267 6.36261 108.789 15.0669C111.411 12.5921 114.937 11.0733 118.831 11.0733C125.036 11.0733 130.341 16.684 132.466 22.142C135.45 20.6883 138.988 19.8532 142.782 19.8532C151.118 19.8532 158.21 22.1299 160.891 27.7634Z" fill="#FC6011" fill-opacity="1.000000" fill-rule="nonzero"/>
		</g>
		<g opacity="0.450000">
			<path id="Path 10161" d="M240.938 81.4067C240.854 81.2161 238.833 76.7717 233.014 77.3511C232.442 75.8519 229.235 69.1459 219.255 74.7703C218.464 72.772 213.95 62.9724 203.943 69.8509C203.803 68.8494 203.364 66.8057 202.028 65.0767C200.184 62.6911 197.368 61.8137 193.657 62.4748C190.299 63.0708 188.051 64.8256 186.977 67.6922C185.913 70.5301 186.322 73.601 186.571 74.8807C184.52 74.964 175.487 75.6628 174.545 81.5519L174.456 82.1086L241.246 82.1086L240.938 81.4067Z" fill="#FC6011" fill-opacity="1.000000" fill-rule="nonzero"/>
		</g>
		<g opacity="0.450000">
			<path id="Path 10162" d="M59.5657 122.913C59.4902 122.723 57.6792 118.277 52.4648 118.858C51.9536 117.359 49.0808 110.653 40.1392 116.277C39.4297 114.279 35.386 104.479 26.4199 111.358C26.293 110.356 25.9011 108.312 24.7046 106.583C23.0527 104.198 20.5293 103.322 17.2029 103.981C14.1941 104.576 12.1807 106.332 11.2185 109.199C10.2654 112.037 10.6313 115.106 10.8555 116.387C9.01758 116.471 0.924316 117.169 0.0800781 123.059L0 123.615L59.8425 123.615L59.5657 122.913Z" fill="#FC6011" fill-opacity="1.000000" fill-rule="nonzero"/>
		</g>
	</g>
	<path id="Path 10163" d="M23.4685 178.85C16.0742 178.85 10.0596 172.834 10.0596 165.441C10.0596 158.047 16.0742 152.032 23.4685 152.032C30.8613 152.032 36.876 158.047 36.876 165.441C36.876 172.834 30.8613 178.85 23.4685 178.85ZM23.4685 156.088C18.3115 156.088 14.1152 160.284 14.1152 165.441C14.1152 170.598 18.3115 174.794 23.4685 174.794C28.6255 174.794 32.8218 170.598 32.8218 165.441C32.8218 160.284 28.6255 156.088 23.4685 156.088Z" fill="#FC6011" fill-opacity="1.000000" fill-rule="nonzero"/>
	<path id="Path 10164" d="M204.825 289.143C190.493 289.143 178.833 277.482 178.833 263.151C178.833 248.818 190.493 237.159 204.825 237.159C219.157 237.159 230.817 248.818 230.817 263.151C230.817 277.482 219.157 289.143 204.825 289.143ZM204.825 241.214C192.729 241.214 182.889 251.055 182.889 263.151C182.889 275.247 192.729 285.087 204.825 285.087C216.921 285.087 226.761 275.247 226.761 263.151C226.761 251.055 216.921 241.214 204.825 241.214Z" fill="#FC6011" fill-opacity="1.000000" fill-rule="nonzero"/>
	<path id="Path 10165" d="M115.35 98.177C101.018 98.177 89.3577 86.5168 89.3577 72.1851C89.3577 57.8533 101.018 46.1931 115.35 46.1931C129.683 46.1931 141.342 57.8533 141.342 72.1851C141.342 86.5168 129.683 98.177 115.35 98.177ZM115.35 50.2488C103.254 50.2488 93.4133 60.0892 93.4133 72.1851C93.4133 84.2809 103.254 94.1213 115.35 94.1213C127.446 94.1213 137.288 84.2809 137.288 72.1851C137.288 60.0892 127.446 50.2488 115.35 50.2488Z" fill="#FC6011" fill-opacity="1.000000" fill-rule="nonzero"/>
	<path id="Path 10166" d="M77.8926 292.123C77.8926 292.123 78.0378 280.387 89.6284 280.387C89.6284 280.387 77.8926 280.242 77.8926 268.651C77.8926 268.651 77.7473 280.387 66.1567 280.387C66.1567 280.387 77.8926 280.532 77.8926 292.123Z" fill="#F9CA24" fill-opacity="1.000000" fill-rule="nonzero"/>
	<path id="Path 10167" d="M32.8218 72.6979C32.8218 72.6979 32.9656 60.9635 44.5562 60.9635C44.5562 60.9635 32.8218 60.8183 32.8218 49.2277C32.8218 49.2277 32.6765 60.9635 21.0859 60.9635C21.0859 60.9635 32.8218 61.1088 32.8218 72.6979Z" fill="#F9CA24" fill-opacity="1.000000" fill-rule="nonzero"/>
	<path id="Path 10168" d="M49.27 305.905C49.27 305.905 49.3547 299.013 56.1621 299.013C56.1621 299.013 49.27 298.929 49.27 292.123C49.27 292.123 49.1851 299.013 42.3794 299.013C42.3794 299.013 49.27 299.1 49.27 305.905Z" fill="#F9CA24" fill-opacity="1.000000" fill-rule="nonzero"/>
	<path id="Path 10169" d="M220.222 203.763C220.222 203.763 220.307 196.873 227.113 196.873C227.113 196.873 220.222 196.788 220.222 189.981C220.222 189.981 220.137 196.873 213.33 196.873C213.33 196.873 220.222 196.958 220.222 203.763Z" fill="#F9CA24" fill-opacity="1.000000" fill-rule="nonzero"/>
	<path id="Path 10170" d="M185.828 37.5327C185.828 37.5327 185.913 30.6406 192.72 30.6406C192.72 30.6406 185.828 30.5559 185.828 23.7501C185.828 23.7501 185.744 30.6406 178.938 30.6406C178.938 30.6406 185.828 30.7268 185.828 37.5327Z" fill="#F9CA24" fill-opacity="1.000000" fill-rule="nonzero"/>
	<path id="Path 10171" d="M56.1621 98.0348C56.1621 98.0348 56.2468 91.1443 63.0527 91.1443C63.0527 91.1443 56.1621 91.058 56.1621 84.2522C56.1621 84.2522 56.0757 91.1443 49.27 91.1443C49.27 91.1443 56.1621 91.229 56.1621 98.0348Z" fill="#F9CA24" fill-opacity="1.000000" fill-rule="nonzero"/>
	<path id="Path 10172" d="M104.934 225.915L104.934 215.31L95.4214 215.31L95.4214 227.008L103.97 227.844L104.934 225.915Z" fill="#FFABAB" fill-opacity="1.000000" fill-rule="nonzero"/>
	<path id="Path 10173" d="M107.6 241.224L75.4827 241.224L75.4827 239.588C75.4827 239.207 75.5144 238.827 75.5764 238.436C76.0076 235.66 78.0239 233.356 80.8105 232.584C86.0854 231.114 93.3662 228.265 93.2742 223.792C95.3301 223.351 97.4189 224.481 98.1392 226.446L105.553 225.067C107.075 229.982 107.497 235.073 107.6 238.436C107.631 239.599 107.621 240.555 107.6 241.224Z" fill="#FDC349" fill-opacity="1.000000" fill-rule="nonzero"/>
	<path id="Path 10174" d="M107.6 241.224L75.4827 241.224L75.4827 239.588C75.4827 239.207 75.5144 238.827 75.5764 238.436L107.6 238.436C107.631 239.599 107.621 240.555 107.6 241.224Z" fill="#DBA941" fill-opacity="1.000000" fill-rule="nonzero"/>
	<path id="Path 10175" d="M166.362 166.078L166.362 171.652C166.362 177.44 161.671 182.131 155.884 182.131L106.674 182.131L106.674 222.434L90.1487 222.434L90.1487 178.741C90.1487 171.748 95.8169 166.078 102.81 166.078L166.362 166.078Z" fill="#29293D" fill-opacity="1.000000" fill-rule="nonzero"/>
	<path id="Path 10176" d="M145.486 104.341C145.291 104.942 145.249 105.599 145.375 106.24L146.757 113.194L136.592 115.233L135.278 107.246C134.456 107.441 133.604 107.623 132.723 107.831C131.885 108.028 131.049 108.21 130.238 108.362C129.4 108.517 128.604 108.293 128.017 107.804C127.849 107.607 127.654 107.399 127.473 107.19C122.683 101.451 122.99 98.6853 124.01 96.5069C124.68 95.0834 125.518 93.9655 125.518 92.3318C124.709 86.4109 128.925 82.0693 134.301 80.7003C135.641 80.3644 137.066 80.2117 138.505 80.2676C139.944 80.3236 141.325 80.6307 142.624 81.1465C143.686 81.5656 144.704 82.1253 145.612 82.8091C148.657 85.0706 150.695 88.6452 150.849 92.6252C151.002 96.6885 149.285 100.348 146.479 102.804C146.004 103.224 145.682 103.754 145.486 104.341Z" fill="#FFA9A9" fill-opacity="1.000000" fill-rule="nonzero"/>
	<path id="Path 10177" d="M150.849 92.6252C151.002 96.6885 149.285 100.348 146.479 102.804C146.004 103.224 145.682 103.754 145.486 104.341L140.711 99.9696C140.711 99.9696 142.526 97.876 140.208 94.9019C138.606 92.8461 137.138 94.3982 136.383 95.5539C136.179 95.867 135.702 95.749 135.649 95.3784C134.967 90.6072 136.773 87.668 136.773 87.668L134.301 80.7003C135.642 80.3644 137.066 80.2117 138.505 80.2676C139.944 80.3236 141.325 80.6307 142.625 81.1465L145.612 82.8091C148.657 85.0706 150.695 88.6452 150.849 92.6252Z" fill="#000000" fill-opacity="1.000000" fill-rule="nonzero"/>
	<path id="Path 10178" d="M127.335 93.7946C127.335 94.1531 127.219 94.4435 127.073 94.4435C126.93 94.4435 126.812 94.1531 126.812 93.7946C126.812 93.4376 126.93 93.1471 127.073 93.1471C127.219 93.1471 127.335 93.4376 127.335 93.7946Z" fill="#000000" fill-opacity="1.000000" fill-rule="nonzero"/>
	<path id="Path 10179" d="M126.209 91.5088C126.209 91.5088 125.992 90.0248 128.697 91.2895" stroke="#000000" stroke-opacity="1.000000" stroke-width="0.250000"/>
	<path id="Path 10180" d="M132.406 97.7445L139.079 93.9896L140.455 101.108L132.406 106.258" stroke="#FFFFFF" stroke-opacity="1.000000" stroke-width="0.250000"/>
	<path id="Path 10181" d="M137.555 95.3481C137.555 95.3481 140.186 90.3289 142.673 93.3392C145.161 96.3511 142.848 103.512 138.31 100.933L137.555 95.3481Z" fill="#FFABAB" fill-opacity="1.000000" fill-rule="nonzero"/>
	<path id="Path 10181" d="M137.555 95.3481C137.555 95.3481 140.186 90.3289 142.673 93.3392C145.161 96.3511 142.848 103.512 138.31 100.933" stroke="#000000" stroke-opacity="1.000000" stroke-width="0.250000"/>
	<path id="Path 10182" d="M139.083 98.534C139.083 98.534 138.864 93.8218 141.832 94.737" stroke="#000000" stroke-opacity="1.000000" stroke-width="0.250000"/>
	<path id="Path 10183" d="M140.623 97.9667C140.623 97.9667 141.125 96.035 139.711 95.451" stroke="#000000" stroke-opacity="1.000000" stroke-width="0.250000"/>
	<path id="Path 10184" d="M132.724 107.831C131.885 108.028 131.047 108.21 130.238 108.362C129.4 108.517 128.604 108.293 128.017 107.804C127.849 107.607 127.654 107.399 127.473 107.19C122.682 101.451 122.991 98.6853 124.01 96.5069C125.476 96.6885 130.153 97.2466 131.928 97.2058C134.763 97.1498 135.474 101.715 132.724 107.831Z" fill="#F9CA24" fill-opacity="1.000000" fill-rule="nonzero"/>
	<path id="Path 10185" d="M151.698 112.521C146.863 111.949 141.186 113.586 136.446 117.307C135.841 117.737 135.238 118.182 134.617 118.66C133.647 116.592 131.406 111.344 131.406 111.344L147.801 106.462C147.801 106.462 149.615 109.276 151.698 112.521Z" fill="#CC4E0E" fill-opacity="1.000000" fill-rule="nonzero"/>
	<circle id="Ellipse 107" cx="34.890381" cy="248.908844" r="23.318018" fill="#000000" fill-opacity="1.000000"/>
	<path id="Path 10207" d="M34.8904 235.584C42.2495 235.584 48.2151 241.55 48.2151 248.909C48.2151 256.268 42.2495 262.233 34.8904 262.233C27.5315 262.233 21.5659 256.268 21.5659 248.909C21.5659 241.55 27.5315 235.584 34.8904 235.584Z" fill="#3D3D3D" fill-opacity="1.000000" fill-rule="nonzero"/>
	<path id="Path 10186" d="M39.3313 248.908C39.3313 251.362 37.3435 253.351 34.8899 253.351C32.4377 253.351 30.4485 251.362 30.4485 248.908C30.4485 246.456 32.4377 244.467 34.8899 244.467C37.3435 244.467 39.3313 246.456 39.3313 248.908Z" fill="#FFFFFF" fill-opacity="1.000000" fill-rule="nonzero"/>
	<path id="Path 10187" d="M42.1797 235.584L8.78296 235.584C8.78296 235.584 18.5901 209.291 51.0581 209.291L42.1797 235.584Z" fill="#29293D" fill-opacity="1.000000" fill-rule="nonzero"/>
	<path id="Path 10188" d="M150.088 103.643C149.385 104.47 148.358 104.951 147.271 104.951L138.234 104.951C135.661 104.951 133.575 102.865 133.575 100.292L133.575 87.1083L148.331 87.1083L150.088 103.643Z" fill="#BA7F17" fill-opacity="1.000000" fill-rule="nonzero"/>
	<g opacity="0.200000">
		<path id="Path 10189" d="M119.847 87.1082C119.847 87.1082 116.446 96.2467 123.382 106.716L137.938 100.951L135.419 85.8436L119.847 87.1082Z" fill="url(#paint_linear_1_1298_0)" fill-opacity="1.000000" fill-rule="nonzero"/>
	</g>
	<path id="Path 10190" d="M151.781 81.3356C148.68 77.4857 144.021 75.0381 138.803 75.0381C133.587 75.0381 128.913 77.4857 125.812 81.3356C124.444 83.0042 123.363 84.9617 122.694 87.1082L134.463 87.1082L134.463 100.292C134.463 102.865 136.549 104.951 139.123 104.951L148.16 104.951C149.246 104.951 150.271 104.47 150.976 103.643C153.534 100.637 155.773 96.8155 155.773 92.6585C155.773 88.3487 154.277 84.3883 151.781 81.3356Z" fill="#E87658" fill-opacity="1.000000" fill-rule="nonzero"/>
	<path id="Path 10191" d="M134.463 81.3356L134.463 87.1083L118.972 87.1083C118.098 87.1083 117.859 85.9147 118.655 85.5501L124.65 82.9089L124.745 81.3356L134.463 81.3356Z" fill="#3C427F" fill-opacity="1.000000" fill-rule="nonzero"/>
	<path id="Path 10192" d="M134.463 81.3356L134.463 86.1371C130.249 82.9089 124.65 82.9089 124.65 82.9089L124.745 81.3356L134.463 81.3356Z" fill="#30336B" fill-opacity="1.000000" fill-rule="nonzero"/>
	<path id="Path 10193" d="M133.002 83.1403C133.002 83.4701 132.736 83.7363 132.406 83.7363C132.076 83.7363 131.81 83.4701 131.81 83.1403C131.81 82.8105 132.076 82.5443 132.406 82.5443C132.736 82.5443 133.002 82.8105 133.002 83.1403Z" fill="#FFFFFF" fill-opacity="1.000000" fill-rule="nonzero"/>
	<path id="Path 10194" d="M65.208 144.464L65.208 160.903C61.5383 159.967 58.8425 156.655 58.8425 152.69C58.8425 148.725 61.5383 145.4 65.208 144.464Z" fill="#F9CA24" fill-opacity="1.000000" fill-rule="nonzero"/>
	<path id="Path 10195" d="M86.6001 150.277C84.7256 153.332 82.5837 157.014 80.3252 161.186L67.3384 161.186C67.1582 161.186 66.9783 161.186 66.7998 161.16C66.2476 161.133 65.7212 161.044 65.2083 160.903L65.2083 144.464C65.7212 144.323 66.2476 144.232 66.7998 144.207C66.9783 144.183 67.1582 144.183 67.3384 144.183L83.1616 144.183C86.2915 144.183 88.2292 147.607 86.6001 150.277Z" fill="#3E394F" fill-opacity="1.000000" fill-rule="nonzero"/>
	<path id="Path 10196" d="M80.3252 161.184C79.5928 162.52 78.8623 163.919 78.115 165.35L71.0701 165.35C71.9126 163.966 72.772 162.583 73.6462 161.184L80.3252 161.184Z" fill="#29293D" fill-opacity="1.000000" fill-rule="nonzero"/>
	<path id="Path 10197" d="M85.2385 169.66C77.8926 180.379 60.3826 209.656 63.5005 241.224C63.6743 243.036 63.9299 244.85 64.2476 246.662L42.75 246.662C38.3828 246.662 35.2876 242.403 36.6582 238.257C41.03 225.037 51.4226 197.549 71.0701 165.35L82.9648 165.35C85.1748 165.35 86.479 167.831 85.2385 169.66Z" fill="#3E394F" fill-opacity="1.000000" fill-rule="nonzero"/>
	<path id="Path 10208" d="M65.208 142.796L66.7993 142.796L66.7993 162.571L65.208 162.571L65.208 142.796Z" fill="#3E394F" fill-opacity="1.000000" fill-rule="nonzero"/>
	<path id="Path 10198" d="M166.217 179.997C151.332 176.244 136.049 165.859 136.049 165.859L137.449 163.267C134.332 161.565 136.177 157.812 136.049 150.656C135.938 143.5 135.174 137.235 135.174 137.235C120.956 145.456 89.0566 152.247 89.0566 152.247L87.196 145.583C87.196 145.583 102.668 140.209 117.283 131.668C124.997 127.152 130.166 122.174 134.617 118.66C135.238 118.182 135.826 117.737 136.431 117.307C136.941 116.909 137.481 116.528 138.021 116.162C142.41 113.251 147.388 112.011 151.698 112.521C152.906 114.397 154.21 116.418 155.307 118.103C156.247 119.534 157.026 120.727 157.502 121.395C164.037 129.585 169.318 146.458 166.217 179.997Z" fill="#FC6011" fill-opacity="1.000000" fill-rule="nonzero"/>
	<path id="Path 10199" d="M74.2515 152.324C74.209 152.324 74.165 152.32 74.1213 152.311C73.8005 152.238 73.5964 151.92 73.6675 151.598L77.9502 132.297C78.021 131.976 78.3374 131.777 78.6611 131.845C78.9832 131.916 79.1858 132.233 79.1147 132.556L74.8323 151.857C74.7703 152.135 74.5237 152.324 74.2515 152.324Z" fill="#3E394F" fill-opacity="1.000000" fill-rule="nonzero"/>
	<path id="Path 10200" d="M78.0273 155.684C78.2329 157.038 77.1106 158.24 75.749 158.095C73.8779 157.896 71.5967 156.779 71.0703 152.686C70.1414 145.479 79.7517 144.62 83.3279 147.135L88.9282 145.347L90.1533 150.781L84.5864 152.247C84.5864 152.247 81.5732 157.607 78.9395 155.684C76.3042 153.763 78.0273 155.684 78.0273 155.684Z" fill="#FFA9A9" fill-opacity="1.000000" fill-rule="nonzero"/>
	<circle id="Ellipse 109" cx="76.739746" cy="152.683701" r="3.725281" fill="#3E394F" fill-opacity="1.000000"/>
	<path id="Path 10201" d="M135.174 137.234C120.956 145.456 89.0566 152.247 89.0566 152.247L87.196 145.583C87.196 145.583 102.668 140.209 117.283 131.668C124.997 127.152 130.166 122.174 134.617 118.66C135.238 118.182 135.826 117.737 136.431 117.307C136.941 116.909 137.481 116.528 138.021 116.162C146.433 122.047 144.891 131.922 135.174 137.234Z" fill="#CC4E0E" fill-opacity="1.000000" fill-rule="nonzero"/>
	<path id="Rectangle 17341" d="M78.5325 125.535L81.0649 125.535L81.0649 136.402L78.5325 136.402C77.134 136.402 76.0002 135.268 76.0002 133.869L76.0002 128.067C76.0002 126.668 77.134 125.535 78.5325 125.535Z" fill="#3E394F" fill-opacity="1.000000" fill-rule="evenodd"/>
	<circle id="Ellipse 110" cx="172.504150" cy="248.908829" r="23.318033" fill="#000000" fill-opacity="1.000000"/>
	<circle id="Ellipse 111" cx="172.503906" cy="248.908844" r="13.324550" fill="#3D3D3D" fill-opacity="1.000000"/>
	<circle id="Ellipse 112" cx="172.504150" cy="248.908829" r="4.441571" fill="#FFFFFF" fill-opacity="1.000000"/>
	<path id="Path 10202" d="M218.225 246.662L64.2476 246.662C63.9297 244.85 63.6741 243.036 63.5002 241.224L115.523 241.224C115.523 241.224 122.31 192.194 138.503 192.194L175.419 192.194C213.587 192.194 218.225 246.662 218.225 246.662Z" fill="#3E394F" fill-opacity="1.000000" fill-rule="nonzero"/>
	<path id="Path 10203" d="M206.839 246.662L138.169 246.662C139.314 228.707 154.247 214.49 172.504 214.49C190.76 214.49 205.694 228.707 206.839 246.662Z" fill="#29293D" fill-opacity="1.000000" fill-rule="nonzero"/>
	<path id="Path 10204" d="M148.75 192.194L135.38 192.194C133.651 192.194 132.25 190.793 132.25 189.064C132.25 184.589 135.876 180.963 140.351 180.963L153.023 180.963C166.839 180.963 160.974 176.39 170.616 176.39L178.417 176.39C180.476 176.39 182.145 178.06 182.145 180.118C182.145 186.787 176.738 192.194 170.069 192.194L148.75 192.194Z" fill="#29293D" fill-opacity="1.000000" fill-rule="nonzero"/>
	<path id="Rectangle 17342" d="M181.907 106.716L218.002 106.716C221.132 106.716 223.669 109.253 223.669 112.383L223.669 171.388L174.494 171.388C170.534 171.388 167.323 168.178 167.323 164.218L167.323 121.299C167.323 113.245 173.853 106.716 181.907 106.716Z" fill="#FC6011" fill-opacity="1.000000" fill-rule="evenodd"/>
	<path id="Path 10205" d="M174.061 195.218L150.858 195.218C150.327 195.218 149.896 194.787 149.896 194.256C149.896 193.725 150.327 193.294 150.858 193.294L172.135 193.294L172.135 185.093C172.135 178.756 177.291 173.601 183.629 173.601L223.027 173.601C223.558 173.601 223.989 174.032 223.989 174.563C223.989 175.094 223.558 175.525 223.027 175.525L183.629 175.525C178.353 175.525 174.061 179.818 174.061 185.093L174.061 195.218Z" fill="#29293D" fill-opacity="1.000000" fill-rule="nonzero"/>
	<circle id="Ellipse 113" r="15.480978" transform="matrix(0.707107 0.707107 0.707107 -0.707107 195.496 139.052)" fill="#FFFFFF" fill-opacity="1.000000"/>
	<path id="Meal" d="M181.926 168.905L181.565 166.091L180.492 168.024L179.412 166.097L179.052 168.905L178.253 168.905L178.836 164.706L179.466 164.706L180.492 166.619L181.511 164.706L182.141 164.706L182.724 168.905L181.926 168.905ZM184.908 168.965Q184.385 168.965 184.016 168.753Q183.648 168.539 183.465 168.183Q183.282 167.826 183.282 167.388Q183.282 166.967 183.455 166.62Q183.629 166.272 183.959 166.065Q184.29 165.857 184.746 165.857Q185.166 165.857 185.456 166.031Q185.748 166.206 185.894 166.5Q186.042 166.793 186.042 167.159Q186.042 167.339 185.994 167.568L184.056 167.568Q184.116 167.964 184.368 168.158Q184.62 168.353 184.974 168.353Q185.46 168.353 185.874 168.107L185.91 168.737Q185.718 168.839 185.463 168.902Q185.208 168.965 184.908 168.965ZM185.286 167.064Q185.286 166.83 185.154 166.65Q185.022 166.469 184.746 166.469Q184.47 166.469 184.302 166.632Q184.133 166.793 184.073 167.064L185.286 167.064ZM187.404 168.965Q187.032 168.965 186.783 168.722Q186.534 168.479 186.534 168.066Q186.534 167.675 186.815 167.439Q187.098 167.202 187.481 167.104Q187.865 167.004 188.22 166.991Q188.208 166.727 188.085 166.614Q187.962 166.5 187.679 166.5Q187.481 166.5 187.293 166.554Q187.104 166.607 186.857 166.727L186.792 166.121Q187.338 165.857 187.884 165.857Q188.412 165.857 188.69 166.146Q188.97 166.433 188.97 167.064L188.97 167.873Q188.97 168.101 188.99 168.201Q189.012 168.299 189.062 168.327Q189.113 168.353 189.233 168.353L189.33 168.353L189.264 168.965L188.993 168.965Q188.747 168.965 188.579 168.873Q188.412 168.779 188.322 168.617Q188.177 168.779 187.928 168.873Q187.679 168.965 187.404 168.965ZM187.716 168.396Q187.83 168.396 187.974 168.339Q188.117 168.281 188.226 168.179L188.226 167.495Q187.865 167.514 187.588 167.651Q187.313 167.789 187.313 168.035Q187.313 168.221 187.41 168.309Q187.506 168.396 187.716 168.396ZM190.716 168.965Q190.332 168.965 190.14 168.747Q189.948 168.527 189.948 168.179L189.948 164.405L190.691 164.405L190.691 167.873Q190.691 168.113 190.717 168.213Q190.745 168.311 190.814 168.333Q190.884 168.353 191.051 168.353L190.985 168.965L190.716 168.965Z" fill="#FFFFFF" fill-opacity="1.000000" fill-rule="evenodd"/>
	<path id="Meal" d="M181.926 168.905L181.565 166.091L180.492 168.024L179.412 166.097L179.052 168.905L178.253 168.905L178.836 164.706L179.466 164.706L180.492 166.619L181.511 164.706L182.141 164.706L182.724 168.905L181.926 168.905ZM184.908 168.965Q184.385 168.965 184.016 168.753Q183.648 168.539 183.465 168.183Q183.282 167.826 183.282 167.388Q183.282 166.967 183.455 166.62Q183.629 166.272 183.959 166.065Q184.29 165.857 184.746 165.857Q185.166 165.857 185.456 166.031Q185.748 166.206 185.894 166.5Q186.042 166.793 186.042 167.159Q186.042 167.339 185.994 167.568L184.056 167.568Q184.116 167.964 184.368 168.158Q184.62 168.353 184.974 168.353Q185.46 168.353 185.874 168.107L185.91 168.737Q185.718 168.839 185.463 168.902Q185.208 168.965 184.908 168.965ZM185.286 167.064Q185.286 166.83 185.154 166.65Q185.022 166.469 184.746 166.469Q184.47 166.469 184.302 166.632Q184.133 166.793 184.073 167.064L185.286 167.064ZM187.404 168.965Q187.032 168.965 186.783 168.722Q186.534 168.479 186.534 168.066Q186.534 167.675 186.815 167.439Q187.098 167.202 187.481 167.104Q187.865 167.004 188.22 166.991Q188.208 166.727 188.085 166.614Q187.962 166.5 187.679 166.5Q187.481 166.5 187.293 166.554Q187.104 166.607 186.857 166.727L186.792 166.121Q187.338 165.857 187.884 165.857Q188.412 165.857 188.69 166.146Q188.97 166.433 188.97 167.064L188.97 167.873Q188.97 168.101 188.99 168.201Q189.012 168.299 189.062 168.327Q189.113 168.353 189.233 168.353L189.33 168.353L189.264 168.965L188.993 168.965Q188.747 168.965 188.579 168.873Q188.412 168.779 188.322 168.617Q188.177 168.779 187.928 168.873Q187.679 168.965 187.404 168.965ZM187.716 168.396Q187.83 168.396 187.974 168.339Q188.117 168.281 188.226 168.179L188.226 167.495Q187.865 167.514 187.588 167.651Q187.313 167.789 187.313 168.035Q187.313 168.221 187.41 168.309Q187.506 168.396 187.716 168.396ZM190.716 168.965Q190.332 168.965 190.14 168.747Q189.948 168.527 189.948 168.179L189.948 164.405L190.691 164.405L190.691 167.873Q190.691 168.113 190.717 168.213Q190.745 168.311 190.814 168.333Q190.884 168.353 191.051 168.353L190.985 168.965L190.716 168.965Z" stroke="#707070" stroke-opacity="0" stroke-width="1.000000"/>
	<path id="Monkey" d="M196.412 168.905L196.051 166.091L194.978 168.024L193.898 166.097L193.538 168.905L192.739 168.905L193.322 164.706L193.952 164.706L194.978 166.619L195.997 164.706L196.627 164.706L197.21 168.905L196.412 168.905ZM199.309 168.965Q198.836 168.965 198.487 168.756Q198.14 168.545 197.954 168.192Q197.768 167.838 197.768 167.411Q197.768 166.985 197.954 166.626Q198.14 166.266 198.487 166.056Q198.836 165.845 199.309 165.845Q199.784 165.845 200.131 166.056Q200.48 166.266 200.666 166.626Q200.852 166.985 200.852 167.411Q200.852 167.838 200.666 168.192Q200.48 168.545 200.131 168.756Q199.784 168.965 199.309 168.965ZM199.309 168.353Q199.675 168.353 199.882 168.095Q200.09 167.838 200.09 167.411Q200.09 166.979 199.882 166.718Q199.675 166.458 199.309 166.458Q198.944 166.458 198.736 166.718Q198.53 166.979 198.53 167.411Q198.53 167.838 198.736 168.095Q198.944 168.353 199.309 168.353ZM203.084 165.857Q203.642 165.857 203.929 166.229Q204.218 166.601 204.218 167.231L204.218 168.905L203.474 168.905L203.474 167.291Q203.474 166.871 203.332 166.67Q203.191 166.469 202.879 166.469Q202.538 166.469 202.315 166.727L202.315 168.905L201.572 168.905L201.572 165.905L202.268 165.905L202.28 166.115Q202.658 165.857 203.084 165.857ZM205.081 164.405L205.825 164.405L205.825 167.136L206.755 165.905L207.596 165.905L206.503 167.345L207.62 168.905L206.78 168.905L205.825 167.574L205.825 168.905L205.081 168.905L205.081 164.405ZM209.522 168.965Q208.999 168.965 208.63 168.753Q208.262 168.539 208.079 168.183Q207.896 167.826 207.896 167.388Q207.896 166.967 208.069 166.62Q208.243 166.272 208.573 166.065Q208.904 165.857 209.359 165.857Q209.78 165.857 210.07 166.031Q210.361 166.206 210.508 166.5Q210.656 166.793 210.656 167.159Q210.656 167.339 210.608 167.568L208.67 167.568Q208.73 167.964 208.982 168.158Q209.233 168.353 209.588 168.353Q210.074 168.353 210.487 168.107L210.524 168.737Q210.332 168.839 210.077 168.902Q209.822 168.965 209.522 168.965ZM209.9 167.064Q209.9 166.83 209.768 166.65Q209.636 166.469 209.359 166.469Q209.084 166.469 208.916 166.632Q208.747 166.793 208.687 167.064L209.9 167.064ZM212.234 168.708L210.985 165.905L211.813 165.905L212.582 167.838L213.361 165.905L214.189 165.905L212.311 170.357L211.567 170.357L212.234 168.708Z" fill="#FFFFFF" fill-opacity="1.000000" fill-rule="evenodd"/>
	<path id="Monkey" d="M196.412 168.905L196.051 166.091L194.978 168.024L193.898 166.097L193.538 168.905L192.739 168.905L193.322 164.706L193.952 164.706L194.978 166.619L195.997 164.706L196.627 164.706L197.21 168.905L196.412 168.905ZM199.309 168.965Q198.836 168.965 198.487 168.756Q198.14 168.545 197.954 168.192Q197.768 167.838 197.768 167.411Q197.768 166.985 197.954 166.626Q198.14 166.266 198.487 166.056Q198.836 165.845 199.309 165.845Q199.784 165.845 200.131 166.056Q200.48 166.266 200.666 166.626Q200.852 166.985 200.852 167.411Q200.852 167.838 200.666 168.192Q200.48 168.545 200.131 168.756Q199.784 168.965 199.309 168.965ZM199.309 168.353Q199.675 168.353 199.882 168.095Q200.09 167.838 200.09 167.411Q200.09 166.979 199.882 166.718Q199.675 166.458 199.309 166.458Q198.944 166.458 198.736 166.718Q198.53 166.979 198.53 167.411Q198.53 167.838 198.736 168.095Q198.944 168.353 199.309 168.353ZM203.084 165.857Q203.642 165.857 203.929 166.229Q204.218 166.601 204.218 167.231L204.218 168.905L203.474 168.905L203.474 167.291Q203.474 166.871 203.332 166.67Q203.191 166.469 202.879 166.469Q202.538 166.469 202.315 166.727L202.315 168.905L201.572 168.905L201.572 165.905L202.268 165.905L202.28 166.115Q202.658 165.857 203.084 165.857ZM205.081 164.405L205.825 164.405L205.825 167.136L206.755 165.905L207.596 165.905L206.503 167.345L207.62 168.905L206.78 168.905L205.825 167.574L205.825 168.905L205.081 168.905L205.081 164.405ZM209.522 168.965Q208.999 168.965 208.63 168.753Q208.262 168.539 208.079 168.183Q207.896 167.826 207.896 167.388Q207.896 166.967 208.069 166.62Q208.243 166.272 208.573 166.065Q208.904 165.857 209.359 165.857Q209.78 165.857 210.07 166.031Q210.361 166.206 210.508 166.5Q210.656 166.793 210.656 167.159Q210.656 167.339 210.608 167.568L208.67 167.568Q208.73 167.964 208.982 168.158Q209.233 168.353 209.588 168.353Q210.074 168.353 210.487 168.107L210.524 168.737Q210.332 168.839 210.077 168.902Q209.822 168.965 209.522 168.965ZM209.9 167.064Q209.9 166.83 209.768 166.65Q209.636 166.469 209.359 166.469Q209.084 166.469 208.916 166.632Q208.747 166.793 208.687 167.064L209.9 167.064ZM212.234 168.708L210.985 165.905L211.813 165.905L212.582 167.838L213.361 165.905L214.189 165.905L212.311 170.357L211.567 170.357L212.234 168.708Z" stroke="#707070" stroke-opacity="0" stroke-width="1.000000"/>
</svg>
