<svg width="225.442383" height="294.809753" viewBox="0 0 225.442 294.81" fill="none" xmlns="http://www.w3.org/2000/svg" xmlns:xlink="http://www.w3.org/1999/xlink">
	<desc>
			Created with Pixso.
	</desc>
	<defs/>
	<path id="Path 2989" d="M180.298 40.4932L92.1787 40.4932C82.8267 40.4932 75.1562 48.1648 75.1562 57.5242L75.1562 277.371C75.1562 286.74 82.8267 294.393 92.1787 294.393L180.298 294.393C189.658 294.393 197.328 286.74 197.328 277.371L197.328 57.5242C197.328 48.1648 189.658 40.4932 180.298 40.4932ZM180.637 47.9424C186.116 47.9424 190.593 52.4286 190.593 57.9064L190.593 268.629C190.593 274.11 186.116 278.586 180.637 278.586L92.2378 278.586C86.7598 278.586 82.2749 274.11 82.2749 268.629L82.2749 57.9064C82.2749 52.4286 86.7598 47.9424 92.2378 47.9424L180.637 47.9424Z" fill="#29293D" fill-opacity="1.000000" fill-rule="nonzero"/>
	<path id="Path 2990" d="M180.298 40.0772L92.1787 40.0772C82.5635 40.0772 74.7402 47.9088 74.7402 57.5242L74.7402 277.371C74.7402 286.986 82.5635 294.809 92.1787 294.809L180.298 294.809C189.913 294.809 197.737 286.986 197.737 277.371L197.737 57.5242C197.737 47.9088 189.913 40.0772 180.298 40.0772ZM196.912 277.371C196.912 286.527 189.455 293.976 180.298 293.976L92.1787 293.976C83.0215 293.976 75.5732 286.527 75.5732 277.371L75.5732 57.5242C75.5732 48.368 83.0215 40.9091 92.1787 40.9091L180.298 40.9091C189.455 40.9091 196.912 48.368 196.912 57.5242L196.912 277.371Z" fill="#CCCCCC" fill-opacity="1.000000" fill-rule="nonzero"/>
	<g opacity="0.300000">
		<path id="Path 2991" d="M190.593 57.9064L190.593 268.63C190.593 274.11 186.116 278.586 180.637 278.586L92.2388 278.586C86.7598 278.586 82.2749 274.11 82.2749 268.63L82.2749 57.9064C82.2749 52.4274 86.7598 47.9424 92.2388 47.9424L180.637 47.9424C186.116 47.9424 190.593 52.4274 190.593 57.9064Z" fill="#FC6011" fill-opacity="1.000000" fill-rule="nonzero"/>
	</g>
	<path id="Path 2992" d="M127.05 49.4703C128.484 49.4703 129.644 50.6315 129.644 52.0656C129.644 53.4912 128.484 54.6512 127.05 54.6512C125.625 54.6512 124.464 53.4912 124.464 52.0656C124.464 50.6315 125.625 49.4703 127.05 49.4703Z" fill="#3B414B" fill-opacity="1.000000" fill-rule="nonzero"/>
	<path id="Path 2993" d="M147.926 51.8167C147.926 53.032 146.89 54.0249 145.607 54.0249C144.333 54.0249 143.289 53.032 143.289 51.8167C143.289 50.6026 144.333 49.6085 145.607 49.6085C146.89 49.6085 147.926 50.6026 147.926 51.8167Z" fill="#515760" fill-opacity="1.000000" fill-rule="nonzero"/>
	<path id="Path 2994" d="M140.271 50.7553L140.271 52.0644C140.271 52.7772 139.698 53.3494 138.986 53.3494L133.906 53.3494C133.201 53.3494 132.621 52.7772 132.621 52.0644L132.621 50.7553C132.621 50.0509 133.201 49.4703 133.906 49.4703L138.986 49.4703C139.698 49.4703 140.271 50.0509 140.271 50.7553Z" fill="#1A1F29" fill-opacity="1.000000" fill-rule="nonzero"/>
	<path id="Path 2995" d="M129.644 52.0656C129.644 50.6315 128.484 49.4715 127.05 49.4715C125.625 49.4715 124.464 50.6315 124.464 52.0656C124.464 53.4912 125.625 54.6512 127.05 54.6512C128.484 54.6512 129.644 53.4912 129.644 52.0656ZM138.985 49.4715L133.904 49.4715C133.2 49.4715 132.621 50.0509 132.621 50.7565L132.621 52.0656C132.621 52.7784 133.2 53.3494 133.904 53.3494L138.985 53.3494C139.698 53.3494 140.271 52.7784 140.271 52.0656L140.271 50.7565C140.271 50.0509 139.698 49.4715 138.985 49.4715ZM116.955 47.946L156.076 47.946C156.076 47.946 151.866 48.6757 151.832 52.6293C151.791 56.5746 148.476 57.2453 145.5 57.2453L136.515 57.2453L127.531 57.2453C124.556 57.2453 121.24 56.5746 121.198 52.6293C121.166 48.6757 116.955 47.946 116.955 47.946ZM145.608 49.6121C144.331 49.6121 143.287 50.5978 143.287 51.8167C143.287 53.0356 144.331 54.0213 145.608 54.0213C146.892 54.0213 147.929 53.0356 147.929 51.8167C147.929 50.5978 146.892 49.6121 145.608 49.6121Z" fill="#3E394F" fill-opacity="1.000000" fill-rule="nonzero"/>
	<path id="Path 2996" d="M193.064 57.0061L193.064 268.63L190.592 268.63L190.592 57.9064C190.592 52.4274 186.117 47.9424 180.637 47.9424L92.2378 47.9424C86.7588 47.9424 82.2739 52.4274 82.2739 57.9064L82.2739 268.63L79.9551 268.63L79.9551 57.0061C79.9551 49.6758 85.9604 43.6871 93.2739 43.6871L179.746 43.6871C187.076 43.6871 193.064 49.6758 193.064 57.0061Z" fill="#3E394F" fill-opacity="1.000000" fill-rule="nonzero"/>
	<path id="Path 2997" d="M193.064 268.631L193.064 277.865C193.064 285.186 187.076 291.184 179.746 291.184L93.2739 291.184C85.9604 291.184 79.9551 285.186 79.9551 277.865L79.9551 268.631L82.2739 268.631C82.2739 274.111 86.7588 278.586 92.2378 278.586L180.637 278.586C186.117 278.586 190.592 274.111 190.592 268.631L193.064 268.631Z" fill="#3E394F" fill-opacity="1.000000" fill-rule="nonzero"/>
	<mask id="mask1_1218" mask-type="alpha" maskUnits="userSpaceOnUse" x="119.496094" y="68.579712" width="50.304688" height="50.305725">
		<rect id="Rectangle 17279" x="119.496094" y="68.579712" width="50.304504" height="50.305717" fill="#FC6011" fill-opacity="1.000000"/>
	</mask>
	<g mask="url(#mask1_1218)">
		<path id="Path 2998" d="M161.748 118.885L127.547 118.885C123.12 118.885 119.496 115.261 119.496 110.833L119.496 76.6336C119.496 72.2052 123.12 68.5809 127.547 68.5809L161.748 68.5809C166.178 68.5809 169.799 72.2052 169.799 76.6336L169.799 110.833C169.799 115.261 166.178 118.885 161.748 118.885Z" fill="#FC6011" fill-opacity="1.000000" fill-rule="nonzero"/>
	</g>
	<mask id="mask1_1222" mask-type="alpha" maskUnits="userSpaceOnUse" x="175.137695" y="67.537476" width="50.304688" height="50.304504">
		<rect id="Rectangle 17280" x="175.137695" y="67.537476" width="50.304527" height="50.304504" fill="#FC6011" fill-opacity="1.000000"/>
	</mask>
	<g mask="url(#mask1_1222)">
		<path id="Path 2999" d="M217.39 117.842L183.19 117.842C178.762 117.842 175.138 114.218 175.138 109.789L175.138 75.5902C175.138 71.1617 178.762 67.5375 183.19 67.5375L217.39 67.5375C221.819 67.5375 225.442 71.1617 225.442 75.5902L225.442 109.789C225.442 114.218 221.819 117.842 217.39 117.842Z" fill="#FC6011" fill-opacity="1.000000" fill-rule="nonzero"/>
	</g>
	<mask id="mask1_1226" mask-type="alpha" maskUnits="userSpaceOnUse" x="119.496094" y="129.731720" width="50.304688" height="50.304504">
		<rect id="Rectangle 17281" x="119.496094" y="129.731720" width="50.304504" height="50.304504" fill="#FC6011" fill-opacity="1.000000"/>
	</mask>
	<g mask="url(#mask1_1226)">
		<path id="Path 3000" d="M161.748 180.036L127.547 180.036C123.12 180.036 119.496 176.412 119.496 171.984L119.496 137.784C119.496 133.356 123.12 129.732 127.547 129.732L161.748 129.732C166.178 129.732 169.799 133.356 169.799 137.784L169.799 171.984C169.799 176.412 166.178 180.036 161.748 180.036Z" fill="#FC6011" fill-opacity="1.000000" fill-rule="nonzero"/>
	</g>
	<mask id="mask1_1230" mask-type="alpha" maskUnits="userSpaceOnUse" x="175.137695" y="128.688324" width="50.304688" height="50.304504">
		<rect id="Rectangle 17282" x="175.137695" y="128.688324" width="50.304527" height="50.304504" fill="#FC6011" fill-opacity="1.000000"/>
	</mask>
	<g mask="url(#mask1_1230)">
		<path id="Path 3001" d="M217.39 178.993L183.19 178.993C178.762 178.993 175.138 175.369 175.138 170.94L175.138 136.741C175.138 132.313 178.762 128.688 183.19 128.688L217.39 128.688C221.819 128.688 225.442 132.313 225.442 136.741L225.442 170.94C225.442 175.369 221.819 178.993 217.39 178.993Z" fill="#FC6011" fill-opacity="1.000000" fill-rule="nonzero"/>
	</g>
	<rect id="Rectangle 17283" x="180.476074" y="163.298523" width="38.412373" height="2.822467" fill="#FFFFFF" fill-opacity="1.000000"/>
	<path id="Path 3002" d="M196.126 139.181C196.126 137.456 197.542 136.051 199.266 136.051C201 136.051 202.396 137.456 202.396 139.181C202.396 140.916 201 142.311 199.266 142.311C197.542 142.311 196.126 140.916 196.126 139.181Z" fill="#FFFFFF" fill-opacity="1.000000" fill-rule="nonzero"/>
	<path id="Path 3003" d="M218.14 161.245L181.728 161.245C181.728 161.245 180.261 143.604 199.688 144.137C211.366 144.456 215.677 150.552 217.247 155.374C218.305 158.588 218.14 161.245 218.14 161.245Z" fill="#FFFFFF" fill-opacity="1.000000" fill-rule="nonzero"/>
	<path id="Path 3004" d="M8.64893 112.312L47.8438 188.059C52.1738 196.427 60.4116 201.087 67.4077 199.675C72.6016 194.78 73.5552 185.364 69.2251 176.996L30.0288 101.249C25.6992 92.8809 17.4492 88.1964 10.4531 89.61C8.25928 91.6644 6.8291 94.5518 6.23047 97.8046C5.81787 100.042 5.78076 102.452 6.20752 104.929C6.57031 107.378 7.39746 109.894 8.64893 112.312Z" fill="#FFC377" fill-opacity="1.000000" fill-rule="nonzero"/>
	<path id="Path 3005" d="M0.322266 100.861C-0.502441 105.334 0.238281 110.532 2.74072 115.369L41.937 191.116C46.9424 200.79 57.1865 205.515 64.6875 201.634C65.7007 201.11 66.6191 200.45 67.4077 199.675C60.4106 201.087 52.1738 196.427 47.8442 188.059L29.9487 153.475L8.64893 112.312C7.39795 109.894 6.5708 107.378 6.20752 104.929C5.78223 102.452 5.81836 100.04 6.23047 97.8046C6.8291 94.5505 8.25977 91.6644 10.4536 89.61C9.36572 89.8047 8.29688 90.1738 7.28369 90.6979C3.5332 92.6393 1.146 96.3885 0.322266 100.861Z" fill="#FA9E4A" fill-opacity="1.000000" fill-rule="nonzero"/>
	<path id="Path 3006" d="M13.27 109.625L27.5962 104.767C28.5171 104.438 28.8413 103.5 28.3208 102.672C28.0566 102.268 27.5972 101.93 27.1343 101.77C26.6187 101.592 26.1006 101.592 25.6177 101.738L11.291 106.595C10.3452 106.916 10.0205 107.854 10.5674 108.691C10.7563 108.979 11.0615 109.264 11.4004 109.448C11.522 109.513 11.6504 109.557 11.7539 109.592C12.2686 109.77 12.7876 109.771 13.27 109.625Z" fill="#FA9E4A" fill-opacity="1.000000" fill-rule="nonzero"/>
	<path id="Path 3007" d="M24.8022 131.779L39.1289 126.921C40.0498 126.592 40.374 125.654 39.8535 124.826C39.5894 124.422 39.1299 124.084 38.666 123.924C38.1514 123.747 37.6333 123.745 37.1504 123.892L22.8237 128.748C21.8779 129.071 21.5532 130.008 22.1001 130.845C22.2876 131.133 22.5933 131.418 22.9331 131.602C23.0547 131.666 23.1831 131.71 23.2866 131.746C23.8013 131.924 24.3193 131.925 24.8022 131.779Z" fill="#FA9E4A" fill-opacity="1.000000" fill-rule="nonzero"/>
	<path id="Path 3008" d="M37.8862 160.31L52.2124 155.453C53.1333 155.123 53.4575 154.186 52.937 153.357C52.6729 152.953 52.2134 152.616 51.751 152.456C51.2349 152.278 50.7168 152.277 50.2339 152.423L35.9072 157.281C34.9614 157.602 34.6367 158.54 35.1836 159.376C35.3726 159.665 35.6777 159.95 36.0166 160.133C36.1382 160.198 36.2666 160.242 36.3701 160.278C36.8848 160.456 37.4038 160.457 37.8862 160.31Z" fill="#FA9E4A" fill-opacity="1.000000" fill-rule="nonzero"/>
	<path id="Path 3009" d="M49.4185 182.464L63.7451 177.607C64.666 177.277 64.9902 176.339 64.4697 175.512C64.2056 175.108 63.7461 174.77 63.2832 174.61C62.7676 174.432 62.2495 174.431 61.7666 174.578L47.4399 179.434C46.4941 179.756 46.1694 180.694 46.7163 181.53C46.9053 181.819 47.2104 182.103 47.5493 182.288C47.6709 182.351 47.7993 182.396 47.9028 182.432C48.4175 182.61 48.9365 182.61 49.4185 182.464Z" fill="#FA9E4A" fill-opacity="1.000000" fill-rule="nonzero"/>
	<path id="Path 3010" d="M32.438 138.987C32.0703 140.119 32.8325 141.285 33.6099 142.186C38.4556 147.822 45.5527 151.47 52.9551 152.14C53.1211 151.911 53.2856 151.683 53.46 151.454C53.4263 151.159 53.3975 150.864 53.3721 150.57C51.5054 147.128 49.3467 143.773 46.3867 141.21C43.3818 138.601 39.4365 136.871 35.4731 137.227C34.2378 137.333 32.8276 137.81 32.438 138.987Z" fill="#339DD5" fill-opacity="1.000000" fill-rule="nonzero"/>
	<path id="Path 3011" d="M36.1958 121.935C35.9541 122.363 35.9624 122.888 36.0059 123.379C36.4746 128.726 40.1519 133.276 44.311 136.671C46.7896 138.7 49.4883 140.449 52.3516 141.881C52.8696 139.389 52.0063 136.8 50.8862 134.51C48.4268 129.484 44.6113 125.139 39.9473 122.044C39.3594 121.655 38.7383 121.28 38.0396 121.177C37.3423 121.079 36.5469 121.324 36.1958 121.935Z" fill="#4A4B4D" fill-opacity="1.000000" fill-rule="nonzero"/>
	<path id="Path 3012" d="M38 110.646C37.9219 112.299 38.6191 113.888 39.4473 115.324C42.5391 120.661 47.7319 124.75 53.6426 126.509C52.4683 121.761 50.2324 117.273 47.1479 113.474C45.4243 111.348 43.3506 109.379 40.7671 108.484C40.3921 108.355 39.9956 108.251 39.6025 108.31C38.5913 108.456 38.0532 109.621 38 110.646Z" fill="#4A4B4D" fill-opacity="1.000000" fill-rule="nonzero"/>
	<path id="Path 3013" d="M53.7856 115.171C53.8242 115.17 53.8579 115.167 53.895 115.16C53.8965 115.084 53.8965 115.008 53.8882 114.927C52.8975 109.363 49.6953 104.206 45.2188 100.759C44.8506 100.472 44.4395 100.192 44.0127 99.9695C43.2759 99.592 42.4824 99.3937 41.7119 99.6438C41.4561 101.936 42.1519 104.256 43.2954 106.258C44.4395 108.264 46.0142 109.98 47.6313 111.624C49.2842 113.297 51.1626 114.999 53.4912 115.301C53.6021 115.314 53.7461 115.245 53.7856 115.171Z" fill="#4A4B4D" fill-opacity="1.000000" fill-rule="nonzero"/>
	<path id="Path 3014" d="M43.2148 95.0879C42.7192 95.3139 42.6064 95.9846 42.7183 96.5184C42.9609 97.706 43.9023 98.628 44.8794 99.3468C46.499 100.545 48.3501 101.426 50.2974 101.929C50.9258 102.088 51.5967 102.211 52.2231 102.023L52.4321 102.012C52.3579 101.68 52.2798 101.346 52.2002 101.015C50.1699 98.4092 47.4233 96.3644 44.3389 95.1937C43.978 95.0542 43.5659 94.9316 43.2148 95.0879Z" fill="#4A4B4D" fill-opacity="1.000000" fill-rule="nonzero"/>
	<path id="Path 3015" d="M50.4995 95.5819C50.5488 95.713 50.5991 95.844 50.6484 95.9762C50.7578 93.7187 50.5415 91.436 49.8154 89.2986C49.0293 86.9919 47.6255 84.8606 45.6553 83.4181C45.0684 82.9842 44.2056 82.6272 43.6562 83.1128C43.2075 83.5095 43.2725 84.2175 43.4087 84.8029C44.3701 89.0703 46.8535 92.9722 50.3071 95.6541L50.4995 95.5819Z" fill="#4A4B4D" fill-opacity="1.000000" fill-rule="nonzero"/>
	<path id="Path 3016" d="M53.46 151.454C53.5176 152.016 53.5791 152.571 53.6558 153.127C57.897 153.274 62.0801 151.909 65.9053 150.052C67.0376 149.506 68.1636 148.899 69.0557 148.013C69.9463 147.126 70.5825 145.913 70.5186 144.654C70.4932 144.164 70.3525 143.665 70.0557 143.273C69.3755 142.381 68.0928 142.25 66.9751 142.345C64.0332 142.6 61.252 143.903 58.916 145.71C56.8149 147.327 55.0479 149.333 53.46 151.454Z" fill="#339DD5" fill-opacity="1.000000" fill-rule="nonzero"/>
	<path id="Path 3017" d="M53.0527 140.918C53.0479 141.368 53.042 141.817 53.0454 142.267C53.3076 142.358 53.6104 142.296 53.8892 142.224C57.7998 141.231 61.5791 139.705 65.0903 137.705C66.8584 136.693 68.5918 135.539 69.894 133.967C71.1992 132.4 72.0469 130.359 71.8232 128.33C71.7632 127.812 71.6274 127.28 71.2773 126.895C70.9541 126.539 70.4805 126.353 70.0117 126.253C68.0498 125.827 66.0386 126.685 64.3535 127.765C59.4443 130.916 56.1255 135.931 53.0527 140.918Z" fill="#4A4B4D" fill-opacity="1.000000" fill-rule="nonzero"/>
	<path id="Path 3018" d="M53.6655 126.612C53.6548 126.866 53.644 127.12 53.6284 127.37L54.0166 127.388C57.0088 126.657 59.8862 125.46 62.5142 123.854C65.5132 122.028 68.3467 119.394 68.9692 115.94C69.1172 115.111 69.0981 114.161 68.5127 113.551C67.7202 112.721 66.3418 112.953 65.2788 113.394C62.6309 114.495 60.418 116.467 58.6353 118.708C56.8511 120.954 55.4614 123.482 54.0791 125.993L53.7007 125.975C53.6909 126.157 53.6763 126.436 53.6655 126.612Z" fill="#4A4B4D" fill-opacity="1.000000" fill-rule="nonzero"/>
	<path id="Path 3019" d="M53.2192 101.9C53.2026 102.044 53.1807 102.184 53.165 102.328C55.1631 101.681 57.1768 100.948 58.8247 99.6461C60.4702 98.3479 61.7217 96.3825 61.6675 94.2873C61.6567 93.7812 61.5029 93.1958 61.0303 93.0191C60.8203 92.9446 60.5918 92.965 60.3691 93.0059C58.708 93.31 57.3521 94.4736 56.1162 95.6264C54.4697 97.1578 52.7783 98.9598 52.6064 101.205L52.4404 101.324C52.5645 101.499 52.687 101.674 52.8105 101.85L53.2192 101.9Z" fill="#4A4B4D" fill-opacity="1.000000" fill-rule="nonzero"/>
	<path id="Path 3020" d="M58.374 105.991C56.4175 108.757 54.9556 111.871 54.0864 115.146C56.6362 114.931 59.063 113.683 60.9565 111.937C63.019 110.026 64.4893 107.552 65.5869 104.964C65.9653 104.07 66.3057 103.049 65.9487 102.14C65.8486 101.877 65.6841 101.633 65.4473 101.487C65.0723 101.253 64.5864 101.301 64.1572 101.405C61.7114 101.983 59.8276 103.934 58.374 105.991Z" fill="#4A4B4D" fill-opacity="1.000000" fill-rule="nonzero"/>
	<path id="Path 3021" d="M53.8267 127.261C54.3398 116.327 53.8711 105.244 49.8525 94.9352C49.6289 94.3642 50.54 94.0781 50.7637 94.6491C54.6992 104.748 55.2725 115.605 54.8208 126.33C54.334 137.851 53.1763 149.359 52.2793 160.853C52.2324 161.458 51.2783 161.51 51.3262 160.897C52.2002 149.696 53.2998 138.485 53.8267 127.261Z" fill="#4A4B4D" fill-opacity="1.000000" fill-rule="nonzero"/>
	<path id="Path 3022" d="M103.179 138.191C102.934 139.166 102.472 140.092 101.871 140.892C100.833 142.256 99.4863 143.366 98.1699 144.469C96.606 145.805 95.0337 147.132 93.46 148.467C91.9897 149.71 90.4551 150.91 89.0581 152.236C87.8682 153.368 86.707 154.978 87.2812 156.686C87.8105 158.232 89.5967 158.574 91.0776 158.487C92.8853 158.378 94.5923 157.645 96.4194 157.756C99.6206 157.952 101.46 160.983 101.096 163.842C100.679 167.062 97.9966 169.646 95.3955 171.441C92.6489 173.337 89.4907 174.604 86.3608 175.79C80.4727 178.025 73.7183 180.339 70.54 186.026C70.2842 186.476 69.5386 186.109 69.7949 185.65C69.8379 185.572 69.8911 185.501 69.9355 185.423C67.1753 183.201 64.5283 180.849 62.0293 178.357C59.4473 175.788 57.0107 173.088 54.7388 170.257C53.5859 168.833 52.4668 167.378 51.4175 165.877C50.439 164.492 49.5229 163.012 49.0649 161.381C48.3379 158.804 49.0649 155.596 51.7266 154.343C54.1426 153.201 56.2363 154.581 58.1011 156.073C58.7095 156.564 59.291 157.071 59.8501 157.496C61.1157 158.455 62.96 159.487 64.5884 158.864C66.0576 158.299 66.5142 156.655 66.3257 155.259C66.1094 153.653 64.9888 152.271 63.9478 151.045C62.8022 149.685 61.6978 148.319 60.749 146.83C58.8813 143.91 57.3857 140.601 56.7319 137.236C56.4229 135.618 56.4624 133.885 57.458 132.504C58.2871 131.34 59.6479 130.699 61.1279 130.934C64.354 131.429 66.0552 135.237 69.4546 135.224C71.2939 135.213 71.8442 133.507 71.4658 132.008C71.0571 130.387 69.98 128.966 68.8213 127.76C66.561 125.397 63.7017 123.464 62.2051 120.509C61.5352 119.193 61.1904 117.695 61.5415 116.255C61.8433 115.017 62.5728 113.86 63.627 113.076C64.6802 112.302 66.0479 112.032 67.3198 112.476C68.8838 113.02 69.896 114.375 71.3623 115.069C72.0244 115.384 72.8672 115.603 73.5874 115.355C74.3843 115.072 74.6992 114.309 74.5693 113.537C74.2881 111.865 72.8062 110.508 71.7495 109.234C69.3369 106.316 67.1216 103.238 65.1787 100.008C64.2954 98.5378 63.4346 96.915 63.4648 95.1901C63.4849 93.8425 64.1606 92.489 65.3315 91.7353C66.5273 90.966 67.8652 91.1715 69.082 91.8146C70.0581 92.3364 71.4248 93.6081 72.627 93.2102C74.2544 92.6669 73.7534 90.1714 73.5259 88.9681C73.1812 87.1241 72.5762 85.333 72.2158 83.4879C71.6699 80.7639 71.8047 77.6866 73.7207 75.4772C75.6455 73.2678 78.8286 73.2281 81.2363 74.8137C84.0718 76.6817 84.9976 79.9441 85.1045 83.0707C85.1729 84.8486 84.8979 86.6385 85.0166 88.4092C85.1235 89.9947 85.8018 91.8771 87.5425 92.4205C88.8311 92.8328 90.1206 92.0755 91.1699 91.454C92.1523 90.8626 93.1621 90.1426 94.3423 89.9622C95.5059 89.7975 96.6406 90.3577 97.1831 91.3711C97.8618 92.6152 97.6782 94.125 97.4067 95.4377C96.7441 98.7374 95.2319 101.865 93.061 104.477C92.0703 105.673 90.4932 106.872 90.3311 108.503C90.1987 109.926 91.2422 111.065 92.7402 110.605C94.7393 110.004 97.3066 107.586 99.2432 109.815C100.024 110.708 100.14 111.995 100.051 113.106C99.9263 114.569 99.3516 115.958 98.7769 117.308C97.4028 120.548 95.5146 123.582 93.2065 126.285C92.1836 127.489 91.0068 128.766 90.6606 130.334C90.2856 132.063 91.6738 133.165 93.3794 133.142C95.1079 133.128 96.6602 132.284 98.3525 132.075C99.8262 131.897 101.242 132.323 102.21 133.45C103.413 134.851 103.602 136.578 103.179 138.191Z" fill="#7C7D7E" fill-opacity="1.000000" fill-rule="nonzero"/>
	<path id="Path 3023" d="M82.5229 104.927C81.9204 97.9188 80.7114 90.9419 78.7686 84.143C78.5244 83.2883 78.2676 82.436 78.0005 81.5862C77.8442 81.0885 77.0498 81.3385 77.207 81.8374C79.3398 88.6231 80.7197 95.5964 81.4624 102.629C82.2017 109.65 82.3184 116.718 81.9565 123.749C81.5864 130.942 80.7026 138.098 79.4805 145.19C78.2373 152.402 76.6421 159.549 74.8643 166.65C73.0767 173.794 71.103 180.89 69.1089 187.981C68.8589 188.87 68.6074 189.76 68.3574 190.651C68.2168 191.151 69.0376 191.326 69.1782 190.827C71.1846 183.705 73.1909 176.579 75.0303 169.412C76.8765 162.219 78.5557 154.98 79.8916 147.675C81.187 140.593 82.1548 133.45 82.6416 126.263C83.1226 119.168 83.1333 112.03 82.5229 104.927Z" fill="#B6B7B7" fill-opacity="1.000000" fill-rule="nonzero"/>
	<path id="Path 3024" d="M89.8496 164.371C83.8691 169.429 77.8901 174.487 71.9106 179.546C68.3022 172.902 64.0542 166.584 59.2217 160.694C58.8877 160.286 58.1865 160.721 58.5234 161.134C63.458 167.148 67.7876 173.605 71.4434 180.402C71.5815 180.658 71.9287 180.604 72.1069 180.453L90.4771 164.914C90.8794 164.573 90.2485 164.034 89.8496 164.371Z" fill="#B6B7B7" fill-opacity="1.000000" fill-rule="nonzero"/>
	<path id="Path 3025" d="M93.3115 139.809C88.2207 144.71 83.1299 149.61 78.04 154.511C74.833 148.975 70.9985 143.789 66.6133 139.048C66.2524 138.657 65.6997 139.258 66.0581 139.644C70.5093 144.457 74.3809 149.751 77.6025 155.39C77.7397 155.633 78.0908 155.61 78.2651 155.442C83.4902 150.412 88.7148 145.382 93.939 140.352C94.3188 139.985 93.689 139.445 93.3115 139.809Z" fill="#B6B7B7" fill-opacity="1.000000" fill-rule="nonzero"/>
	<path id="Path 3026" d="M89.9443 119.688C87.5786 124.143 84.7754 128.364 81.584 132.307C78.9551 127.938 75.7695 123.894 72.103 120.275C71.7231 119.899 71.1689 120.499 71.5479 120.871C75.3052 124.582 78.5464 128.748 81.1953 133.251C81.3252 133.47 81.6992 133.497 81.8579 133.303C85.2441 129.181 88.2061 124.745 90.6934 120.062C90.937 119.602 90.1885 119.228 89.9443 119.688Z" fill="#B6B7B7" fill-opacity="1.000000" fill-rule="nonzero"/>
	<path id="Path 3027" d="M88.6133 100.45C86.3643 103.355 84.3184 106.398 82.478 109.56L74.1753 99.7676C73.8364 99.3661 73.1343 99.8012 73.478 100.206C76.3833 103.633 79.2891 107.059 82.1943 110.487C82.394 110.721 82.7559 110.734 82.918 110.453C84.8003 107.163 86.9102 104.002 89.2407 100.994C89.5605 100.583 88.9346 100.037 88.6133 100.45Z" fill="#B6B7B7" fill-opacity="1.000000" fill-rule="nonzero"/>
	<path id="Path 3028" d="M128.878 114.963C131.173 129.322 128.759 146.957 121.771 159.719C114.12 173.684 101.081 182.188 86.1001 187.564C83.9785 188.319 81.7886 188.979 79.5684 189.331C78.7725 187.163 78.2544 184.919 77.8696 182.636C76.1182 172.19 77.1895 161.295 80.9277 151.38C84.6699 141.478 91.0898 132.599 99.3086 125.933C107.657 119.174 118.165 114.642 128.878 114.963Z" fill="#4A4B4D" fill-opacity="1.000000" fill-rule="nonzero"/>
	<path id="Path 3029" d="M124.887 118.323C119.685 123.546 114.804 129.081 110.231 134.861C110.111 134.387 110.08 133.855 110 133.408C109.75 132.016 109.5 130.624 109.252 129.232C109.096 128.364 107.723 128.486 107.879 129.359C108.163 130.941 108.446 132.523 108.73 134.104C108.847 134.76 108.913 135.486 109.246 136.077C107.555 138.251 105.904 140.458 104.307 142.702C102.457 145.301 100.698 147.962 98.9814 150.65C98.2046 147.214 97.4282 143.776 96.6519 140.338C96.458 139.483 95.084 139.602 95.2788 140.465C96.1694 144.408 97.0605 148.349 97.9512 152.292C94.7632 157.395 91.7832 162.629 89.0728 168C88.2061 163.662 87.3403 159.322 86.4736 154.983C86.3018 154.121 84.9277 154.241 85.1011 155.111C86.0576 159.9 87.0137 164.689 87.9702 169.48C87.9941 169.6 88.0557 169.718 88.1313 169.825C88.1001 169.888 88.0654 169.951 88.0327 170.015C85.3916 175.405 83.0059 180.916 80.8755 186.527C80.562 187.354 81.8169 187.925 82.1328 187.095C84.353 181.243 86.8906 175.518 89.6665 169.909C94.7017 168.877 99.7388 167.845 104.774 166.813C105.635 166.637 105.515 165.263 104.646 165.441L90.4478 168.35C92.1235 165.039 93.8594 161.759 95.7227 158.549C96.7358 156.805 97.8022 155.092 98.8696 153.38C104.014 152.851 109.161 152.324 114.305 151.795C115.189 151.704 115.06 150.331 114.178 150.422C109.375 150.915 104.572 151.409 99.77 151.903C103.041 146.762 106.557 141.775 110.296 136.965C110.461 137.027 110.63 137.076 110.805 137.103C111.429 137.198 112.068 137.111 112.691 137.055C113.549 136.975 114.408 136.897 115.266 136.819C116.915 136.668 118.565 136.516 120.216 136.365C121.101 136.284 120.972 134.911 120.088 134.992C118.635 135.125 117.185 135.259 115.732 135.391C114.344 135.519 112.946 135.71 111.554 135.765C111.458 135.77 111.358 135.77 111.258 135.766C112.149 134.639 113.039 133.509 113.955 132.402C117.75 127.814 121.757 123.408 125.959 119.19C126.584 118.562 125.509 117.698 124.887 118.323Z" fill="#84878E" fill-opacity="1.000000" fill-rule="nonzero"/>
	<path id="Path 3030" d="M64.0381 147.839C69.1519 159.171 64.1128 172.503 52.7808 177.616C41.4502 182.729 28.1191 177.689 23.0054 166.358C17.8916 155.026 22.9321 141.695 34.2627 136.581C45.5938 131.468 58.9248 136.508 64.0381 147.839Z" fill="#FFA9A9" fill-opacity="1.000000" fill-rule="nonzero"/>
	<path id="Path 3031" d="M10.1851 137.937C10.7935 139.476 12.083 140.638 13.4282 141.605C18.4419 145.199 24.8574 146.789 30.9678 145.961C27.9443 142.117 24.0605 138.946 19.6851 136.751C17.2412 135.523 14.5415 134.582 11.8174 134.829C11.4233 134.865 11.0181 134.933 10.6841 135.148C9.82324 135.698 9.81104 136.981 10.1851 137.937Z" fill="#4A4B4D" fill-opacity="1.000000" fill-rule="nonzero"/>
	<path id="Path 3032" d="M31.4258 128.446C30.4487 129.304 29.9307 130.566 29.5713 131.816C28.2407 136.479 28.7612 141.647 30.9932 145.95C33.0366 142.695 34.3555 138.98 34.8208 135.162C35.0815 133.028 35.0625 130.78 34.1597 128.83C34.0283 128.548 33.8696 128.266 33.6221 128.075C32.9873 127.585 32.0342 127.917 31.4258 128.446Z" fill="#4A4B4D" fill-opacity="1.000000" fill-rule="nonzero"/>
	<path id="Path 3033" d="M119.397 294.81L37.2305 294.81L37.2305 168.285L43.2158 175.467L49.1997 168.285L55.2002 175.467L61.1855 168.285L67.186 175.467L73.1699 168.285L79.1543 175.467L85.1562 168.285L91.1401 175.467L97.124 168.285L103.125 175.467L109.11 168.285L119.397 294.81Z" fill="#FAC46D" fill-opacity="1.000000" fill-rule="nonzero"/>
	<path id="Path 3034" d="M37.2305 168.285L37.2305 294.81L15.4863 294.81L22.3369 168.285L29.7837 175.468L37.2305 168.285Z" fill="#FA9E4A" fill-opacity="1.000000" fill-rule="nonzero"/>
	<path id="Path 3035" d="M50.9526 141.994C49.0967 141.994 49.3584 144.868 51.2036 144.868C53.061 144.868 52.7988 141.994 50.9526 141.994Z" fill="#F25C5C" fill-opacity="1.000000" fill-rule="nonzero"/>
	<path id="Path 3036" d="M56.7671 148.41C54.9111 148.41 55.1729 151.284 57.0181 151.284C58.874 151.284 58.6123 148.41 56.7671 148.41Z" fill="#F25C5C" fill-opacity="1.000000" fill-rule="nonzero"/>
	<path id="Path 3037" d="M50.752 149.412C48.896 149.412 49.1577 152.286 51.0029 152.286C52.8589 152.286 52.5972 149.412 50.752 149.412Z" fill="#F25C5C" fill-opacity="1.000000" fill-rule="nonzero"/>
	<path id="Path 3038" d="M54.8716 19.7858L52.5879 22.91L50.0405 21.0516L52.3184 17.9226L49.1968 15.6507L51.0527 13.0987L54.1831 15.3754L56.4766 12.2308L59.0239 14.088L56.729 17.2326L59.853 19.5178L57.9888 22.065L54.8716 19.7858Z" fill="#FC6011" fill-opacity="1.000000" fill-rule="nonzero"/>
	<path id="Path 3039" d="M74.5273 29.4677C74.0059 26.138 76.2871 23.0114 79.6123 22.4908C82.936 21.9704 86.0698 24.2519 86.5903 27.5816C87.1094 30.9054 84.8232 34.0344 81.498 34.5537C78.1743 35.073 75.0469 32.7914 74.5273 29.4677ZM79.9644 24.7448C77.8799 25.0705 76.4556 27.0311 76.7812 29.1155C77.106 31.1939 79.0615 32.6255 81.146 32.2998C83.2305 31.974 84.6611 30.0135 84.3364 27.9338C84.0107 25.8495 82.0488 24.419 79.9644 24.7448Z" fill="#FC6011" fill-opacity="1.000000" fill-rule="nonzero"/>
	<rect id="Rectangle 17284" x="58.556641" y="49.396973" width="8.504433" height="8.505490" transform="rotate(-64.2644 58.556641 49.396973)" fill="#FECFB7" fill-opacity="1.000000"/>
	<path id="Path 3040" d="M42.6245 33.0728C45.4541 32.6304 48.1084 34.5657 48.5508 37.3966C48.9932 40.2263 47.0576 42.8793 44.2266 43.3217C41.397 43.7652 38.7427 41.8287 38.3003 38.999C37.8594 36.1681 39.7944 33.5151 42.6245 33.0728Z" fill="#FECFB7" fill-opacity="1.000000" fill-rule="nonzero"/>
	<path id="Path 3041" d="M52.9058 66.2741C54.8398 65.9724 56.6538 67.2946 56.9565 69.2288C57.2583 71.163 55.936 72.9769 54.0005 73.2798C52.0664 73.5827 50.2524 72.2592 49.9507 70.3251C49.6479 68.3898 50.9717 66.5758 52.9058 66.2741Z" fill="#FC6011" fill-opacity="1.000000" fill-rule="nonzero"/>
	<path id="Path 3042" d="M191.555 252.314C191.555 275.318 172.907 293.964 149.904 293.964C126.899 293.964 108.253 275.318 108.253 252.314C108.253 229.311 126.899 210.663 149.904 210.663C172.907 210.663 191.555 229.311 191.555 252.314Z" fill="#F25C5C" fill-opacity="1.000000" fill-rule="nonzero"/>
	<path id="Path 3043" d="M187.605 252.314C187.605 275.318 168.957 293.964 145.954 293.964C122.95 293.964 104.303 275.318 104.303 252.314C104.303 229.311 122.95 210.663 145.954 210.663C168.957 210.663 187.605 229.311 187.605 252.314Z" fill="#FFA9A9" fill-opacity="1.000000" fill-rule="nonzero"/>
	<path id="Path 3044" d="M184.819 252.314C184.819 273.779 167.418 291.18 145.954 291.18C124.488 291.18 107.087 273.779 107.087 252.314C107.087 230.849 124.488 213.448 145.954 213.448C167.418 213.448 184.819 230.849 184.819 252.314Z" fill="#FFFFFF" fill-opacity="1.000000" fill-rule="nonzero"/>
	<path id="Path 3045" d="M163.741 265.648L140.046 256.941L140.046 220.571L141.881 220.571L141.881 255.662L164.373 263.924L163.741 265.648Z" fill="#3E394F" fill-opacity="1.000000" fill-rule="nonzero"/>
	<path id="Path 3046" d="M134.561 222.444L140.963 211.356L147.366 222.444L134.561 222.444Z" fill="#3E394F" fill-opacity="1.000000" fill-rule="nonzero"/>
	<path id="Path 3047" d="M160.09 270.15L172.706 267.964L164.506 258.13L160.09 270.15Z" fill="#3E394F" fill-opacity="1.000000" fill-rule="nonzero"/>
	<mask id="mask1_1234" mask-type="alpha" maskUnits="userSpaceOnUse" x="144.374512" y="216.429138" width="36.599609" height="50.696404">
		<rect id="Rectangle 17285" x="144.374512" y="216.429138" width="36.599628" height="50.696404" fill="#FC6011" fill-opacity="1.000000"/>
	</mask>
	<g mask="url(#mask1_1234)">
		<path id="Path 3048" d="M144.375 216.429L144.375 254.144L179.629 267.126C179.629 267.126 191.555 221.015 144.375 216.429Z" fill="#FECFB7" fill-opacity="1.000000" fill-rule="nonzero"/>
	</g>
	<path id="Path 3049" d="M144.166 256.523C144.166 258.293 142.732 259.727 140.962 259.727C139.194 259.727 137.76 258.293 137.76 256.523C137.76 254.754 139.194 253.321 140.962 253.321C142.732 253.321 144.166 254.754 144.166 256.523Z" fill="#3E394F" fill-opacity="1.000000" fill-rule="nonzero"/>
	<path id="Path 3050" d="M196.571 11.0627L189.857 12.1013L190.882 18.7668L185.445 19.6059L184.42 12.9404L177.751 13.9706L176.911 8.53357L183.58 7.50336L182.546 0.840271L187.983 0L189.019 6.66312L195.731 5.62692L196.571 11.0627ZM187.218 1.04462L183.591 1.6048L184.626 8.26791L177.956 9.29929L178.516 12.926L185.186 11.8946L186.21 18.5601L189.837 17.9999L188.814 11.3356L195.525 10.2982L194.965 6.67154L188.253 7.70773L187.218 1.04462Z" fill="#FC6011" fill-opacity="1.000000" fill-rule="nonzero"/>
	<path id="Path 3051" d="M194.875 24.3553C197.332 21.0003 202.064 20.2634 205.419 22.7205C208.779 25.1823 209.506 29.9161 207.049 33.2711C204.592 36.6261 199.863 37.3569 196.502 34.8951C193.148 32.438 192.418 27.7103 194.875 24.3553ZM203.753 24.996C201.655 23.4597 198.69 23.9177 197.149 26.0214C195.608 28.125 196.071 31.0845 198.168 32.6208C200.272 34.1618 203.233 33.7098 204.775 31.6062C206.315 29.5013 205.857 26.537 203.753 24.996Z" fill="#FC6011" fill-opacity="1.000000" fill-rule="nonzero"/>
	<rect id="Rectangle 17286" x="176.238281" y="33.813019" width="7.404662" height="7.405265" transform="rotate(-88.4095 176.238281 33.813019)" fill="#FC6011" fill-opacity="1.000000"/>
	<path id="Path 3052" d="M200.116 42.7363C200.893 41.6772 202.382 41.4464 203.442 42.2242C204.502 43.0007 204.733 44.4901 203.957 45.5503C203.18 46.6105 201.69 46.8401 200.629 46.0648C199.569 45.2883 199.339 43.7977 200.116 42.7363Z" fill="#FC6011" fill-opacity="1.000000" fill-rule="nonzero"/>
</svg>
