<svg width="210.613037" height="313.262268" viewBox="0 0 210.613 313.262" fill="none" xmlns="http://www.w3.org/2000/svg" xmlns:xlink="http://www.w3.org/1999/xlink">
	<desc>
			Created with Pixso.
	</desc>
	<defs/>
	<path id="Path 3134" d="M181.011 121.672C177.91 124.466 176.259 128.524 176.52 132.677L181.829 216.182C181.829 216.182 183.404 229.052 172.107 229.052C160.81 229.052 162.384 216.182 162.384 216.182L167.677 132.677C167.941 128.524 166.29 124.466 163.186 121.672L161.983 120.593C158.65 117.583 156.999 113.138 157.585 108.678L163.063 66.4393C163.172 65.7143 163.788 65.1738 164.513 65.1738C165.316 65.1738 165.964 65.8065 165.98 66.6085L166.649 106.374C166.662 107.233 167.363 107.922 168.222 107.922L168.958 107.922C169.828 107.922 170.533 107.217 170.533 106.348L170.533 66.748C170.533 65.8791 171.239 65.1738 172.107 65.1738C172.976 65.1738 173.68 65.8791 173.68 66.748L173.68 106.348C173.68 107.217 174.386 107.922 175.255 107.922L175.992 107.922C176.85 107.922 177.551 107.233 177.565 106.374L178.234 66.6085C178.234 65.8065 178.896 65.1738 179.684 65.1738C180.426 65.1738 181.042 65.7143 181.134 66.4393L186.629 108.678C187.2 113.138 185.549 117.583 182.215 120.593L181.011 121.672Z" fill="#FC6011" fill-opacity="1.000000" fill-rule="nonzero"/>
	<path id="Path 3135" d="M154.78 33.7108L156.861 35.7969L155.164 37.4941L153.077 35.4135L151 37.4941L149.298 35.7969L151.38 33.7108L149.283 31.6148L150.981 29.9176L153.077 32.0136L155.164 29.9319L156.861 31.6346L154.78 33.7108Z" fill="#FC6011" fill-opacity="1.000000" fill-rule="nonzero"/>
	<path id="Path 3136" d="M164.375 20.0614C161.808 20.0614 159.725 17.9775 159.725 15.4146C159.725 12.8517 161.808 10.7634 164.375 10.7634C166.938 10.7634 169.023 12.8517 169.023 15.4146C169.023 17.9775 166.938 20.0614 164.375 20.0614ZM161.461 15.4146C161.461 17.0218 162.768 18.3246 164.375 18.3246C165.978 18.3246 167.286 17.0218 167.286 15.4146C167.286 13.8075 165.978 12.5002 164.375 12.5002C162.768 12.5002 161.461 13.8075 161.461 15.4146Z" fill="#FC6011" fill-opacity="1.000000" fill-rule="nonzero"/>
	<rect id="Rectangle 17292" x="172.162354" y="30.742371" width="6.477143" height="6.477097" transform="rotate(-55.3773 172.162354 30.742371)" fill="#FECFB7" fill-opacity="1.000000"/>
	<path id="Path 3137" d="M163.335 44.4895C163.335 42.3078 165.103 40.5392 167.286 40.5392C169.466 40.5392 171.235 42.3078 171.235 44.4895C171.235 46.6712 169.466 48.4398 167.286 48.4398C165.103 48.4398 163.335 46.6712 163.335 44.4895Z" fill="#FECFB7" fill-opacity="1.000000" fill-rule="nonzero"/>
	<path id="Path 3138" d="M189.526 40.6589C189.526 39.1682 190.734 37.9587 192.225 37.9587C193.716 37.9587 194.925 39.1682 194.925 40.6589C194.925 42.1497 193.716 43.3591 192.225 43.3591C190.734 43.3591 189.526 42.1497 189.526 40.6589Z" fill="#FC6011" fill-opacity="1.000000" fill-rule="nonzero"/>
	<path id="Path 3139" d="M13.7976 163.827C13.7976 162.403 14.9521 161.249 16.3748 161.249C17.7986 161.249 18.9519 162.403 18.9519 163.827C18.9519 165.25 17.7986 166.404 16.3748 166.404C14.9521 166.404 13.7976 165.25 13.7976 163.827Z" fill="#FECFB7" fill-opacity="1.000000" fill-rule="nonzero"/>
	<rect id="Rectangle 17293" x="8.578857" y="147.905930" width="6.177880" height="6.177872" transform="rotate(-34.6196 8.578857 147.905930)" fill="#FC6011" fill-opacity="1.000000"/>
	<path id="Path 3140" d="M0 162.716C0 161.167 1.25659 159.911 2.80444 159.911C4.35352 159.911 5.60791 161.167 5.60791 162.716C5.60791 164.265 4.35352 165.52 2.80444 165.52C1.25659 165.52 0 164.265 0 162.716Z" fill="#FC6011" fill-opacity="1.000000" fill-rule="nonzero"/>
	<path id="Path 3141" d="M186.747 130.39L190.885 234.329C190.947 235.907 191.907 237.15 193.029 237.106C193.978 237.068 194.764 236.109 194.919 234.796L200.836 185.106C201.223 181.863 200.041 178.589 197.93 177.054C196.084 175.712 194.924 173.014 194.952 170.125L195.337 130.47C195.371 126.97 193.286 124.079 190.799 124.178C188.428 124.273 186.615 127.054 186.747 130.39Z" fill="#FC6011" fill-opacity="1.000000" fill-rule="nonzero"/>
	<path id="Path 3143" d="M130.742 47.4237L63.6348 47.4237C56.5129 47.4237 50.6721 53.2646 50.6721 60.393L50.6721 227.816C50.6721 234.951 56.5129 240.78 63.6348 240.78L130.742 240.78C137.87 240.78 143.711 234.951 143.711 227.816L143.711 60.393C143.711 53.2646 137.87 47.4237 130.742 47.4237ZM131 53.0965C135.172 53.0965 138.581 56.5118 138.581 60.6841L138.581 221.16C138.581 225.333 135.172 228.741 131 228.741L63.6809 228.741C59.5076 228.741 56.0935 225.333 56.0935 221.16L56.0935 60.6841C56.0935 56.5118 59.5076 53.0965 63.6809 53.0965L131 53.0965Z" fill="#29293D" fill-opacity="1.000000" fill-rule="nonzero"/>
	<path id="Path 3144" d="M130.741 47.1062L63.635 47.1062C56.312 47.1062 50.3547 53.0701 50.3547 60.3929L50.3547 227.816C50.3547 235.139 56.312 241.096 63.635 241.096L130.741 241.096C138.064 241.096 144.021 235.139 144.021 227.816L144.021 60.3929C144.021 53.0701 138.064 47.1062 130.741 47.1062ZM143.394 227.816C143.394 234.79 137.715 240.462 130.741 240.462L63.635 240.462C56.6614 240.462 50.9885 234.79 50.9885 227.816L50.9885 60.3929C50.9885 53.4195 56.6614 47.7401 63.635 47.7401L130.741 47.7401C137.715 47.7401 143.394 53.4195 143.394 60.3929L143.394 227.816Z" fill="#CCCCCC" fill-opacity="1.000000" fill-rule="nonzero"/>
	<path id="Path 3145" d="M138.581 60.6841L138.581 221.16C138.581 225.332 135.171 228.741 131 228.741L63.6799 228.741C59.5076 228.741 56.0923 225.332 56.0923 221.16L56.0923 60.6841C56.0923 56.5118 59.5076 53.0965 63.6799 53.0965L131 53.0965C135.171 53.0965 138.581 56.5118 138.581 60.6841Z" fill="#FECFB7" fill-opacity="1.000000" fill-rule="nonzero"/>
	<path id="Path 3146" d="M90.1917 54.2599C91.2837 54.2599 92.1682 55.1442 92.1682 56.235C92.1682 57.3215 91.2837 58.2047 90.1917 58.2047C89.1064 58.2047 88.2222 57.3215 88.2222 56.235C88.2222 55.1442 89.1064 54.2599 90.1917 54.2599Z" fill="#3B414B" fill-opacity="1.000000" fill-rule="nonzero"/>
	<path id="Path 3147" d="M106.089 56.0461C106.089 56.9711 105.3 57.7279 104.323 57.7279C103.353 57.7279 102.557 56.9711 102.557 56.0461C102.557 55.1211 103.353 54.3642 104.323 54.3642C105.3 54.3642 106.089 55.1211 106.089 56.0461Z" fill="#515760" fill-opacity="1.000000" fill-rule="nonzero"/>
	<path id="Path 3148" d="M100.259 55.2386L100.259 56.2361C100.259 56.7788 99.8237 57.2138 99.28 57.2138L95.4121 57.2138C94.876 57.2138 94.4333 56.7788 94.4333 56.2361L94.4333 55.2386C94.4333 54.7026 94.876 54.2599 95.4121 54.2599L99.28 54.2599C99.8237 54.2599 100.259 54.7026 100.259 55.2386Z" fill="#1A1F29" fill-opacity="1.000000" fill-rule="nonzero"/>
	<path id="Path 3149" d="M92.168 56.2361C92.168 55.1442 91.2837 54.2598 90.1917 54.2598C89.1052 54.2598 88.2219 55.1442 88.2219 56.2361C88.2219 57.3215 89.1052 58.2058 90.1917 58.2058C91.2837 58.2058 92.168 57.3215 92.168 56.2361ZM99.2798 54.2598L95.4119 54.2598C94.8748 54.2598 94.4331 54.7026 94.4331 55.2386L94.4331 56.2361C94.4331 56.7788 94.8748 57.2138 95.4119 57.2138L99.2798 57.2138C99.8225 57.2138 100.259 56.7788 100.259 56.2361L100.259 55.2386C100.259 54.7026 99.8225 54.2598 99.2798 54.2598ZM82.5042 53.0987L112.295 53.0987C112.295 53.0987 109.089 53.6545 109.063 56.6646C109.031 59.6701 106.507 60.1809 104.242 60.1809L97.3992 60.1809L90.5574 60.1809C88.2913 60.1809 85.7668 59.6701 85.7349 56.6646C85.7107 53.6545 82.5042 53.0987 82.5042 53.0987ZM104.323 54.3675C103.351 54.3675 102.557 55.1189 102.557 56.0461C102.557 56.9743 103.351 57.7257 104.323 57.7257C105.302 57.7257 106.091 56.9743 106.091 56.0461C106.091 55.1189 105.302 54.3675 104.323 54.3675Z" fill="#3E394F" fill-opacity="1.000000" fill-rule="nonzero"/>
	<path id="Path 3150" d="M140.464 59.9986L140.464 221.16L138.581 221.16L138.581 60.6841C138.581 56.5118 135.173 53.0965 131 53.0965L63.6809 53.0965C59.5076 53.0965 56.0923 56.5118 56.0923 60.6841L56.0923 221.16L54.3259 221.16L54.3259 59.9986C54.3259 54.4158 58.9001 49.8558 64.4685 49.8558L130.322 49.8558C135.904 49.8558 140.464 54.4158 140.464 59.9986Z" fill="#3E394F" fill-opacity="1.000000" fill-rule="nonzero"/>
	<path id="Path 3151" d="M140.464 221.16L140.464 228.192C140.464 233.768 135.904 238.335 130.322 238.335L64.4685 238.335C58.9001 238.335 54.3259 233.768 54.3259 228.192L54.3259 221.16L56.0923 221.16C56.0923 225.332 59.5076 228.741 63.6809 228.741L131 228.741C135.173 228.741 138.581 225.332 138.581 221.16L140.464 221.16Z" fill="#3E394F" fill-opacity="1.000000" fill-rule="nonzero"/>
	<path id="Path 3152" d="M129.761 273.052C129.761 273.052 103.837 211.233 142.089 176.243C142.089 176.243 131.936 117.687 142.089 109.529C152.241 101.372 159.129 130.74 175.446 223.741L210.568 271.601L210.613 313.262L147.471 313.262L129.761 273.052Z" fill="#FFA9A9" fill-opacity="1.000000" fill-rule="nonzero"/>
	<path id="Path 3153" d="M50.4478 164.823L41.2014 164.823C36.6646 164.823 32.9526 161.111 32.9526 156.574C32.9526 152.037 36.6646 148.325 41.2014 148.325L50.4478 148.325C54.9846 148.325 58.6968 152.037 58.6968 156.574C58.6968 161.111 54.9846 164.823 50.4478 164.823Z" fill="#FFA9A9" fill-opacity="1.000000" fill-rule="nonzero"/>
	<path id="Path 3154" d="M48.6794 184.13L39.8867 184.13C34.5774 184.13 30.2339 179.786 30.2339 174.476C30.2339 169.166 34.5774 164.823 39.8867 164.823L48.6794 164.823C53.9885 164.823 58.3333 169.166 58.3333 174.476C58.3333 179.786 53.9885 184.13 48.6794 184.13Z" fill="#FFA9A9" fill-opacity="1.000000" fill-rule="nonzero"/>
	<path id="Path 3155" d="M49.043 203.437L40.2502 203.437C34.9412 203.437 30.5964 199.093 30.5964 193.784C30.5964 188.474 34.9412 184.13 40.2502 184.13L49.043 184.13C54.3523 184.13 58.697 188.474 58.697 193.784C58.697 199.093 54.3523 203.437 49.043 203.437Z" fill="#FFA9A9" fill-opacity="1.000000" fill-rule="nonzero"/>
	<path id="Path 3156" d="M50.8555 219.934L41.6101 219.934C37.0732 219.934 33.3613 216.222 33.3613 211.685C33.3613 207.148 37.0732 203.436 41.6101 203.436L50.8555 203.436C55.3923 203.436 59.1042 207.148 59.1042 211.685C59.1042 216.222 55.3923 219.934 50.8555 219.934Z" fill="#FFA9A9" fill-opacity="1.000000" fill-rule="nonzero"/>
	<mask id="mask1_1459" mask-type="alpha" maskUnits="userSpaceOnUse" x="39.979004" y="70.451111" width="38.309082" height="38.309174">
		<rect id="Rectangle 17294" x="39.979004" y="70.451111" width="38.309147" height="38.309181" fill="#FC6011" fill-opacity="1.000000"/>
	</mask>
	<g mask="url(#mask1_1459)">
		<path id="Path 3157" d="M70.928 108.76L47.3369 108.76C43.2898 108.76 39.9778 105.449 39.9778 101.401L39.9778 77.8113C39.9778 73.7632 43.2898 70.4511 47.3369 70.4511L70.928 70.4511C74.9758 70.4511 78.2869 73.7632 78.2869 77.8113L78.2869 101.401C78.2869 105.449 74.9758 108.76 70.928 108.76Z" fill="#FC6011" fill-opacity="1.000000" fill-rule="nonzero"/>
	</g>
	<mask id="mask1_1463" mask-type="alpha" maskUnits="userSpaceOnUse" x="82.352783" y="69.656921" width="38.309082" height="38.309143">
		<rect id="Rectangle 17295" x="82.352783" y="69.656921" width="38.309147" height="38.309147" fill="#FC6011" fill-opacity="1.000000"/>
	</mask>
	<g mask="url(#mask1_1463)">
		<path id="Path 3158" d="M113.303 107.966L89.7119 107.966C85.6648 107.966 82.3528 104.654 82.3528 100.607L82.3528 77.016C82.3528 72.9679 85.6648 69.6558 89.7119 69.6558L113.303 69.6558C117.351 69.6558 120.662 72.9679 120.662 77.016L120.662 100.607C120.662 104.654 117.351 107.966 113.303 107.966Z" fill="#FC6011" fill-opacity="1.000000" fill-rule="nonzero"/>
	</g>
	<mask id="mask1_1467" mask-type="alpha" maskUnits="userSpaceOnUse" x="39.103271" y="117.884735" width="38.309082" height="38.309143">
		<rect id="Rectangle 17296" x="39.103271" y="117.884735" width="38.309147" height="38.309147" fill="#FC6011" fill-opacity="1.000000"/>
	</mask>
	<g mask="url(#mask1_1467)">
		<path id="Path 3159" d="M70.0544 156.194L46.4624 156.194C42.4143 156.194 39.1023 152.882 39.1023 148.835L39.1023 125.244C39.1023 121.197 42.4143 117.885 46.4624 117.885L70.0544 117.885C74.1028 117.885 77.4126 121.197 77.4126 125.244L77.4126 148.835C77.4126 152.882 74.1028 156.194 70.0544 156.194Z" fill="#FC6011" fill-opacity="1.000000" fill-rule="nonzero"/>
	</g>
	<mask id="mask1_1471" mask-type="alpha" maskUnits="userSpaceOnUse" x="81.477295" y="117.090454" width="38.310303" height="38.309174">
		<rect id="Rectangle 17297" x="81.477295" y="117.090454" width="38.310287" height="38.309181" fill="#FC6011" fill-opacity="1.000000"/>
	</mask>
	<g mask="url(#mask1_1471)">
		<path id="Path 3160" d="M112.428 155.4L88.8374 155.4C84.7893 155.4 81.4773 152.089 81.4773 148.041L81.4773 124.451C81.4773 120.403 84.7893 117.091 88.8374 117.091L112.428 117.091C116.477 117.091 119.788 120.403 119.788 124.451L119.788 148.041C119.788 152.089 116.477 155.4 112.428 155.4Z" fill="#FC6011" fill-opacity="1.000000" fill-rule="nonzero"/>
	</g>
	<mask id="mask1_1475" mask-type="alpha" maskUnits="userSpaceOnUse" x="81.477295" y="163.659515" width="38.310303" height="38.310287">
		<rect id="Rectangle 17299" x="81.477295" y="163.659515" width="38.310287" height="38.310287" fill="#FC6011" fill-opacity="1.000000"/>
	</mask>
	<g mask="url(#mask1_1475)">
		<path id="Path 3162" d="M112.428 201.97L88.8374 201.97C84.7893 201.97 81.4773 198.658 81.4773 194.611L81.4773 171.02C81.4773 166.973 84.7893 163.66 88.8374 163.66L112.428 163.66C116.477 163.66 119.788 166.973 119.788 171.02L119.788 194.611C119.788 198.658 116.477 201.97 112.428 201.97Z" fill="#FC6011" fill-opacity="1.000000" fill-rule="nonzero"/>
	</g>
	<rect id="Rectangle 17300" x="85.542725" y="190.016663" width="29.252882" height="2.149831" fill="#FFFFFF" fill-opacity="1.000000"/>
	<path id="Path 3163" d="M97.4619 171.65C97.4619 170.339 98.5396 169.268 99.8535 169.268C101.174 169.268 102.237 170.339 102.237 171.65C102.237 172.972 101.174 174.035 99.8535 174.035C98.5396 174.035 97.4619 172.972 97.4619 171.65Z" fill="#FFFFFF" fill-opacity="1.000000" fill-rule="nonzero"/>
	<path id="Path 3164" d="M114.224 188.453L86.4954 188.453C86.4954 188.453 85.3782 175.018 100.172 175.425C109.067 175.668 112.349 180.31 113.544 183.983C114.35 186.429 114.224 188.453 114.224 188.453Z" fill="#FFFFFF" fill-opacity="1.000000" fill-rule="nonzero"/>
	<path id="Path 3185" d="M114.164 16.7417C114.367 29.6274 97.4321 43.7381 97.4321 43.7381C78.7395 27.0635 80.6904 16.7417 80.6904 16.7417C80.6904 7.4964 88.1868 0 97.4321 0C106.676 0 114.164 7.4964 114.164 16.7417ZM105.871 16.7417C105.871 12.0806 102.094 8.30273 97.4321 8.30273C92.771 8.30273 88.9944 12.0806 88.9944 16.7417C88.9944 21.3929 92.771 25.1707 97.4321 25.1707C102.094 25.1707 105.871 21.3929 105.871 16.7417Z" fill="#EDAC4A" fill-opacity="1.000000" fill-rule="nonzero"/>
	<path id="Path 3186" d="M98.9602 95.7163C98.9602 119.293 79.8459 138.426 56.2493 138.426C32.655 138.426 13.5383 119.293 13.5383 95.7163C13.5383 72.1209 32.655 53.0053 56.2493 53.0053L56.2493 95.7163L98.9602 95.7163Z" fill="#FFE1A4" fill-opacity="1.000000" fill-rule="nonzero"/>
	<path id="Path 3187" d="M92.8086 95.7163C92.8086 115.896 76.447 132.276 56.2493 132.276C36.0505 132.276 19.689 115.896 19.689 95.7163C19.689 75.5176 36.0505 59.1571 56.2493 59.1571L56.2493 95.7163L92.8086 95.7163Z" fill="#EDAC4A" fill-opacity="1.000000" fill-rule="nonzero"/>
	<path id="Path 3188" d="M48.9333 76.2305C48.9333 79.6613 46.1528 82.4417 42.7222 82.4417C39.2925 82.4417 36.511 79.6613 36.511 76.2305C36.511 72.8009 39.2925 70.0205 42.7222 70.0205C46.1528 70.0205 48.9333 72.8009 48.9333 76.2305Z" fill="#F25C5C" fill-opacity="1.000000" fill-rule="nonzero"/>
	<path id="Path 3189" d="M41.2751 109.24C41.2751 112.412 38.7046 114.984 35.532 114.984C32.3616 114.984 29.79 112.412 29.79 109.24C29.79 106.069 32.3616 103.497 35.532 103.497C38.7046 103.497 41.2751 106.069 41.2751 109.24Z" fill="#F25C5C" fill-opacity="1.000000" fill-rule="nonzero"/>
	<path id="Path 3190" d="M48.2092 99.7325C48.2092 101.247 46.981 102.477 45.4661 102.477C43.95 102.477 42.7219 101.247 42.7219 99.7325C42.7219 98.2177 43.95 96.9884 45.4661 96.9884C46.981 96.9884 48.2092 98.2177 48.2092 99.7325Z" fill="#F25C5C" fill-opacity="1.000000" fill-rule="nonzero"/>
	<path id="Path 3191" d="M52.3782 116.45C52.3782 118.6 50.636 120.342 48.4861 120.342C46.3362 120.342 44.594 118.6 44.594 116.45C44.594 114.3 46.3362 112.558 48.4861 112.558C50.636 112.558 52.3782 114.3 52.3782 116.45Z" fill="#F25C5C" fill-opacity="1.000000" fill-rule="nonzero"/>
	<path id="Path 3192" d="M69.6052 106.305C69.6052 108.42 67.8916 110.133 65.7781 110.133C63.6633 110.133 61.9485 108.42 61.9485 106.305C61.9485 104.19 63.6633 102.477 65.7781 102.477C67.8916 102.477 69.6052 104.19 69.6052 106.305Z" fill="#F25C5C" fill-opacity="1.000000" fill-rule="nonzero"/>
	<path id="Path 3193" d="M81.6013 109.176C81.6013 111.043 80.0876 112.558 78.22 112.558C76.3525 112.558 74.8376 111.043 74.8376 109.176C74.8376 107.308 76.3525 105.793 78.22 105.793C80.0876 105.793 81.6013 107.308 81.6013 109.176Z" fill="#F25C5C" fill-opacity="1.000000" fill-rule="nonzero"/>
	<path id="Path 3194" d="M95.3823 92.9337L59.6526 92.9337L59.6526 57.2039C79.3911 57.2039 95.3823 73.1942 95.3823 92.9337Z" fill="#FFE1A4" fill-opacity="1.000000" fill-rule="nonzero"/>
	<path id="Path 3195" d="M90.238 92.9337L59.6526 92.9337L59.6526 62.3495C76.5503 62.3495 90.238 76.0361 90.238 92.9337Z" fill="#EDAC4A" fill-opacity="1.000000" fill-rule="nonzero"/>
	<path id="Path 3196" d="M76.3064 74.5674C76.3064 77.1621 74.2036 79.2647 71.6101 79.2647C69.0142 79.2647 66.9116 77.1621 66.9116 74.5674C66.9116 71.9726 69.0142 69.8711 71.6101 69.8711C74.2036 69.8711 76.3064 71.9726 76.3064 74.5674Z" fill="#F25C5C" fill-opacity="1.000000" fill-rule="nonzero"/>
	<path id="Path 3197" d="M69.6165 85.3143C69.6165 87.24 68.0542 88.8021 66.1287 88.8021C64.2029 88.8021 62.6406 87.24 62.6406 85.3143C62.6406 83.3885 64.2029 81.8275 66.1287 81.8275C68.0542 81.8275 69.6165 83.3885 69.6165 85.3143Z" fill="#F25C5C" fill-opacity="1.000000" fill-rule="nonzero"/>
	<path id="Path 3198" d="M82.7117 88.8022C82.7117 90.2368 81.5486 91.4002 80.115 91.4002C78.679 91.4002 77.5168 90.2368 77.5168 88.8022C77.5168 87.3674 78.679 86.2041 80.115 86.2041C81.5486 86.2041 82.7117 87.3674 82.7117 88.8022Z" fill="#F25C5C" fill-opacity="1.000000" fill-rule="nonzero"/>
	<path id="Path 3199" d="M35.8188 88.2946C34.0007 86.4084 32.1838 84.5211 30.3669 82.635C29.9099 82.1615 28.988 82.2922 28.6069 82.7888C28.1565 83.3721 28.2751 84.0444 28.7595 84.5486C30.5767 86.4348 32.3958 88.3221 34.2117 90.2083C34.6665 90.6807 35.5903 90.551 35.9714 90.0545C36.4209 89.4712 36.3032 88.7989 35.8188 88.2946Z" fill="#FFE1A4" fill-opacity="1.000000" fill-rule="nonzero"/>
	<path id="Path 3200" d="M31.9092 94.4376C31.4797 93.8851 30.7556 93.7598 30.168 94.14L25.1794 97.3652C24.6301 97.72 24.4807 98.589 24.8828 99.1064C25.3113 99.659 26.0354 99.7831 26.6228 99.4041C28.2861 98.3286 29.9495 97.2532 31.6113 96.1788C32.1606 95.824 32.3101 94.955 31.9092 94.4376Z" fill="#FFE1A4" fill-opacity="1.000000" fill-rule="nonzero"/>
	<path id="Path 3201" d="M42.0354 85.1176C41.3564 85.0243 40.718 85.4351 40.5808 86.1206C40.157 88.243 39.7327 90.3653 39.3098 92.4866C39.1802 93.1281 39.6504 93.851 40.3127 93.9421C40.9917 94.0355 41.6299 93.6247 41.7673 92.9392C42.1912 90.8168 42.6143 88.6945 43.0383 86.5721C43.1658 85.9316 42.6965 85.2088 42.0354 85.1176Z" fill="#FFE1A4" fill-opacity="1.000000" fill-rule="nonzero"/>
	<path id="Path 3202" d="M52.7615 89.603C52.4758 88.9274 51.8342 88.6912 51.1543 88.868C49.3792 89.3295 47.605 89.7908 45.8289 90.2533C45.1948 90.4181 44.8499 91.2827 45.095 91.8594C45.3794 92.535 46.021 92.7722 46.7009 92.5954C48.4761 92.1329 50.2515 91.6715 52.0266 91.2101C52.6604 91.0443 53.0066 90.1808 52.7615 89.603Z" fill="#FFE1A4" fill-opacity="1.000000" fill-rule="nonzero"/>
	<path id="Path 3203" d="M53.1812 70.8323C53.1514 70.1787 52.478 69.6108 51.8289 69.6965C51.1335 69.7887 50.6611 70.3501 50.6919 71.0499L50.9236 76.1426C50.9543 76.7963 51.6277 77.3653 52.2771 77.2785C52.9724 77.1863 53.4448 76.6249 53.4128 75.9251L53.1812 70.8323Z" fill="#FFE1A4" fill-opacity="1.000000" fill-rule="nonzero"/>
	<path id="Path 3204" d="M49.1672 63.7929C47.7776 64.0632 46.3901 64.3334 45.0005 64.6025C44.6643 64.6685 44.3809 64.7739 44.1523 65.0442C43.9558 65.2792 43.824 65.6472 43.8645 65.9559C43.946 66.57 44.5315 67.2258 45.218 67.0918C46.6077 66.8216 47.9961 66.5513 49.3848 66.2822C49.7209 66.2163 50.0054 66.1108 50.2327 65.8406C50.4294 65.6055 50.5623 65.2364 50.5195 64.9288C50.4392 64.3148 49.8538 63.6589 49.1672 63.7929Z" fill="#FFE1A4" fill-opacity="1.000000" fill-rule="nonzero"/>
	<path id="Path 3205" d="M34.1731 71.196C33.5798 70.9455 32.7703 71.1443 32.51 71.7914C31.9673 73.1414 31.4246 74.4904 30.8818 75.8395C30.6379 76.4448 30.8303 77.2313 31.4773 77.5037C32.0706 77.7531 32.8801 77.5554 33.1416 76.9083C33.6843 75.5582 34.2258 74.2092 34.7686 72.8591C35.0125 72.2538 34.8201 71.4684 34.1731 71.196Z" fill="#FFE1A4" fill-opacity="1.000000" fill-rule="nonzero"/>
	<path id="Path 3206" d="M27.4546 106.257C27.3469 105.614 26.8064 105.027 26.1013 105.121C25.4729 105.204 24.8511 105.784 24.9653 106.474C25.2751 108.326 25.5828 110.179 25.8914 112.03C25.999 112.673 26.5396 113.26 27.2458 113.165C27.8733 113.082 28.4949 112.503 28.3806 111.812C28.072 109.961 27.7634 108.109 27.4546 106.257Z" fill="#FFE1A4" fill-opacity="1.000000" fill-rule="nonzero"/>
	<path id="Path 3207" d="M51.9375 103.577C50.0459 104.003 48.1565 104.427 46.2659 104.851C45.9253 104.928 45.6506 105.014 45.4167 105.292C45.2212 105.527 45.0894 105.895 45.1299 106.204C45.209 106.802 45.8 107.493 46.4834 107.34C48.3738 106.916 50.2644 106.491 52.155 106.067C52.4946 105.99 52.7693 105.903 53.0032 105.625C53.1997 105.39 53.3315 105.022 53.2898 104.713C53.2107 104.116 52.6199 103.425 51.9375 103.577Z" fill="#FFE1A4" fill-opacity="1.000000" fill-rule="nonzero"/>
	<path id="Path 3208" d="M58.5881 100.353C58.4827 99.7095 57.939 99.124 57.2358 99.2173C56.6042 99.3008 55.9871 99.8798 56.0989 100.571C56.447 102.693 56.7932 104.815 57.1414 106.937C57.2458 107.581 57.7896 108.166 58.4949 108.073C59.1243 107.989 59.7427 107.41 59.6296 106.719C59.2825 104.597 58.9353 102.476 58.5881 100.353Z" fill="#FFE1A4" fill-opacity="1.000000" fill-rule="nonzero"/>
	<path id="Path 3209" d="M62.7966 113.284L55.623 111.076C54.9968 110.884 54.2532 111.465 54.1687 112.079C54.0676 112.816 54.5002 113.328 55.1716 113.535L62.345 115.742C62.9712 115.935 63.7161 115.354 63.7996 114.739C63.9016 114.003 63.4678 113.491 62.7966 113.284Z" fill="#FFE1A4" fill-opacity="1.000000" fill-rule="nonzero"/>
	<path id="Path 3210" d="M76.0427 99.6787C75.9373 99.3975 75.6868 99.1042 75.4055 98.9856C74.8398 98.7472 73.9663 98.9207 73.7412 99.581L72.0056 104.673C71.8936 105.002 71.8386 105.304 71.9636 105.644C72.0691 105.925 72.3186 106.218 72.6008 106.337C73.1667 106.575 74.04 106.402 74.2642 105.742L76.001 100.649C76.1118 100.319 76.1677 100.018 76.0427 99.6787Z" fill="#FFE1A4" fill-opacity="1.000000" fill-rule="nonzero"/>
	<path id="Path 3211" d="M86.8621 101.036C86.6511 100.763 86.3975 100.63 86.0691 100.53C84.6804 100.105 83.2908 99.6809 81.9011 99.2558C81.6133 99.1679 81.1892 99.2986 80.9541 99.4656C80.7092 99.6392 80.4885 99.9566 80.4465 100.259C80.4026 100.584 80.45 100.941 80.6575 101.207C80.8684 101.48 81.1211 101.613 81.4495 101.714C82.8391 102.138 84.229 102.563 85.6174 102.987C85.9065 103.075 86.3303 102.945 86.5645 102.778C86.8093 102.604 87.03 102.287 87.072 101.985C87.116 101.659 87.0686 101.303 86.8621 101.036Z" fill="#FFE1A4" fill-opacity="1.000000" fill-rule="nonzero"/>
	<path id="Path 3212" d="M85.0339 111.421C84.5386 111.04 83.6719 111.001 83.2732 111.575L80.1489 116.09C79.9556 116.368 79.8313 116.651 79.8611 117.001C79.8875 117.306 80.0554 117.658 80.3027 117.85C80.7993 118.23 81.666 118.268 82.0625 117.695L85.1877 113.181C85.3801 112.902 85.5063 112.619 85.4746 112.269C85.4482 111.964 85.2812 111.611 85.0339 111.421Z" fill="#FFE1A4" fill-opacity="1.000000" fill-rule="nonzero"/>
	<path id="Path 3213" d="M74.8684 120.046C74.4817 118.348 74.0962 116.65 73.7104 114.953C73.6467 114.67 73.3215 114.376 73.0735 114.258C72.7932 114.127 72.3945 114.095 72.1033 114.218C71.8113 114.341 71.5376 114.553 71.4102 114.854C71.2708 115.187 71.2893 115.477 71.3684 115.824L72.5264 120.917C72.5911 121.199 72.9163 121.493 73.1633 121.611C73.4436 121.743 73.8423 121.776 74.1335 121.652C74.4255 121.529 74.7004 121.317 74.8267 121.016C74.9673 120.684 74.9475 120.393 74.8684 120.046Z" fill="#FFE1A4" fill-opacity="1.000000" fill-rule="nonzero"/>
	<path id="Path 3214" d="M66.3008 119.044C64.2554 119.232 62.21 119.42 60.1643 119.609C59.5142 119.669 58.9407 120.292 59.0295 120.963C59.1187 121.632 59.6853 122.162 60.3821 122.098C62.4285 121.91 64.4729 121.721 66.5183 121.533C67.1687 121.473 67.7422 120.851 67.6531 120.18C67.5642 119.511 66.9983 118.979 66.3008 119.044Z" fill="#FFE1A4" fill-opacity="1.000000" fill-rule="nonzero"/>
	<path id="Path 3215" d="M67.3103 124.274C66.9172 123.766 66.113 123.539 65.5681 123.976C63.9873 125.249 62.4043 126.523 60.8235 127.797C60.3149 128.205 60.094 128.982 60.5247 129.538C60.9202 130.046 61.7222 130.273 62.2671 129.835C63.8489 128.562 65.4309 127.289 67.0127 126.015C67.5203 125.606 67.7422 124.83 67.3103 124.274Z" fill="#FFE1A4" fill-opacity="1.000000" fill-rule="nonzero"/>
	<path id="Path 3216" d="M54.7959 126.611C53.4841 125.224 52.1716 123.834 50.8599 122.446C50.6545 122.228 50.2314 122.134 49.948 122.158C49.6438 122.185 49.29 122.352 49.0999 122.6C48.9033 122.856 48.7693 123.181 48.8132 123.511C48.8594 123.861 49.0144 124.106 49.2537 124.359C50.5654 125.748 51.8782 127.138 53.1899 128.526C53.3953 128.743 53.8193 128.838 54.1016 128.814C54.407 128.787 54.7595 128.62 54.9497 128.372C55.1462 128.116 55.2805 127.791 55.2363 127.461C55.1902 127.111 55.0364 126.866 54.7959 126.611Z" fill="#FFE1A4" fill-opacity="1.000000" fill-rule="nonzero"/>
	<path id="Path 3217" d="M43.7327 121.242C41.7268 121.548 39.7197 121.856 37.7139 122.161C37.0691 122.26 36.4846 122.816 36.5779 123.515C36.6614 124.151 37.2393 124.756 37.9314 124.651C39.9373 124.344 41.9443 124.038 43.9502 123.731C44.595 123.632 45.1785 123.076 45.0862 122.378C45.0017 121.742 44.4248 121.136 43.7327 121.242Z" fill="#FFE1A4" fill-opacity="1.000000" fill-rule="nonzero"/>
	<path id="Path 3218" d="M37.9983 117.863C35.9924 117.208 33.9854 116.553 31.9795 115.898C31.3599 115.696 30.5996 115.818 30.3152 116.493C30.0801 117.052 30.2471 117.941 30.9106 118.157C32.9177 118.812 34.9236 119.467 36.9304 120.121C37.55 120.323 38.3093 120.202 38.5938 119.526C38.8298 118.968 38.6619 118.079 37.9983 117.863Z" fill="#FFE1A4" fill-opacity="1.000000" fill-rule="nonzero"/>
	<path id="Path 3219" d="M74.7551 81.2926C74.0388 81.1937 73.4841 81.6189 73.3005 82.2956C72.7996 84.1477 72.2976 85.9998 71.7966 87.8519C71.6243 88.4836 72.1692 89.2196 72.7996 89.3064C73.5159 89.4052 74.0706 88.9801 74.2542 88.3034C74.7551 86.4513 75.2571 84.5992 75.7581 82.747C75.9294 82.1165 75.3855 81.3794 74.7551 81.2926Z" fill="#FFE1A4" fill-opacity="1.000000" fill-rule="nonzero"/>
	<path id="Path 3220" d="M83.9788 82.022C83.7874 81.777 83.5051 81.5485 83.1843 81.5156C82.0662 81.3991 80.9465 81.2838 79.8284 81.1673C79.49 81.1322 79.1648 81.175 78.8792 81.3771C78.6353 81.5507 78.4158 81.8682 78.3728 82.1703C78.3279 82.4955 78.375 82.8514 78.5828 83.1183C78.7737 83.3644 79.0562 83.5918 79.377 83.6248C80.4951 83.7412 81.6145 83.8565 82.7329 83.973C83.0713 84.0081 83.3965 83.9664 83.6809 83.7632C83.926 83.5907 84.1458 83.2732 84.1873 82.97C84.2312 82.6449 84.1851 82.2889 83.9788 82.022Z" fill="#FFE1A4" fill-opacity="1.000000" fill-rule="nonzero"/>
	<path id="Path 3221" d="M79.9568 73.1865C79.3086 73.0975 78.6001 73.4974 78.5022 74.1895C78.311 75.5406 78.1211 76.8918 77.9299 78.2419C77.8398 78.8879 78.2463 79.6019 78.9329 79.6964C79.5811 79.7854 80.2917 79.3855 80.3884 78.6934C80.5784 77.3433 80.7686 75.9921 80.9597 74.6409C81.0498 73.995 80.6433 73.2809 79.9568 73.1865Z" fill="#FFE1A4" fill-opacity="1.000000" fill-rule="nonzero"/>
	<mask id="mask1_1479" mask-type="alpha" maskUnits="userSpaceOnUse" x="39.103271" y="164.453796" width="38.309082" height="38.310257">
		<rect id="Rectangle 17298" x="39.103271" y="164.453796" width="38.309147" height="38.310253" fill="#FC6011" fill-opacity="1.000000"/>
	</mask>
	<g mask="url(#mask1_1479)">
		<path id="Path 3161" d="M70.0544 202.764L46.4624 202.764C42.4143 202.764 39.1023 199.452 39.1023 195.405L39.1023 171.814C39.1023 167.766 42.4143 164.454 46.4624 164.454L70.0544 164.454C74.1028 164.454 77.4126 167.766 77.4126 171.814L77.4126 195.405C77.4126 199.452 74.1028 202.764 70.0544 202.764Z" fill="#FC6011" fill-opacity="1.000000" fill-rule="nonzero"/>
	</g>
	<path id="Path 3222" d="M66.6162 68.4825C65.9604 67.4412 65.3047 66.3997 64.6487 65.3572C64.3005 64.8036 63.4207 64.6619 62.9065 65.0595C62.3484 65.4934 62.2363 66.2086 62.6099 66.8018C63.2659 67.8432 63.9216 68.8846 64.5774 69.926C64.9255 70.4808 65.8066 70.6225 66.3186 70.2237C66.8767 69.7909 66.9897 69.0758 66.6162 68.4825Z" fill="#FFE1A4" fill-opacity="1.000000" fill-rule="nonzero"/>
	<path id="Path 3223" d="M65.5835 72.7581C65.0618 72.3571 64.2532 72.3626 63.8225 72.9119C62.8933 74.1049 61.9617 75.2968 61.03 76.4887C60.6279 77.0039 60.6367 77.8278 61.1851 78.2486C61.7058 78.6495 62.5154 78.644 62.9448 78.0948C63.8752 76.9018 64.8069 75.7098 65.7373 74.5179C66.1394 74.0027 66.1316 73.1788 65.5835 72.7581Z" fill="#FFE1A4" fill-opacity="1.000000" fill-rule="nonzero"/>
</svg>
