<svg width="419.000000" height="428.000336" viewBox="0 0 419 428" fill="none" xmlns="http://www.w3.org/2000/svg" xmlns:xlink="http://www.w3.org/1999/xlink">
	<desc>
			Created with Pixso.
	</desc>
	<defs>
		<filter id="filter_1_874_dd" x="0.000000" y="2.000336" width="419.000000" height="426.000000" filterUnits="userSpaceOnUse" color-interpolation-filters="sRGB">
			<feFlood flood-opacity="0" result="BackgroundImageFix"/>
			<feBlend mode="normal" in="SourceGraphic" in2="BackgroundImageFix" result="shape"/>
			<feGaussianBlur stdDeviation="7.33333" result="effect_layerBlur_1"/>
		</filter>
		<filter id="filter_1_877_dd" x="0.000000" y="2.000336" width="419.000000" height="426.000000" filterUnits="userSpaceOnUse" color-interpolation-filters="sRGB">
			<feFlood flood-opacity="0" result="BackgroundImageFix"/>
			<feBlend mode="normal" in="SourceGraphic" in2="BackgroundImageFix" result="shape"/>
			<feGaussianBlur stdDeviation="7.33333" result="effect_layerBlur_1"/>
		</filter>
		<filter id="filter_1_879_dd" x="0.000000" y="2.000336" width="419.000000" height="411.000000" filterUnits="userSpaceOnUse" color-interpolation-filters="sRGB">
			<feFlood flood-opacity="0" result="BackgroundImageFix"/>
			<feBlend mode="normal" in="SourceGraphic" in2="BackgroundImageFix" result="shape"/>
			<feGaussianBlur stdDeviation="7.33333" result="effect_layerBlur_1"/>
		</filter>
		<filter id="filter_1_880_dd" x="0.000000" y="283.000336" width="145.000000" height="145.000000" filterUnits="userSpaceOnUse" color-interpolation-filters="sRGB">
			<feFlood flood-opacity="0" result="BackgroundImageFix"/>
			<feBlend mode="normal" in="SourceGraphic" in2="BackgroundImageFix" result="shape"/>
			<feGaussianBlur stdDeviation="7.33333" result="effect_layerBlur_1"/>
		</filter>
		<filter id="filter_1_881_dd" x="274.000000" y="283.000336" width="145.000000" height="145.000000" filterUnits="userSpaceOnUse" color-interpolation-filters="sRGB">
			<feFlood flood-opacity="0" result="BackgroundImageFix"/>
			<feBlend mode="normal" in="SourceGraphic" in2="BackgroundImageFix" result="shape"/>
			<feGaussianBlur stdDeviation="7.33333" result="effect_layerBlur_1"/>
		</filter>
		<filter id="filter_1_878_dd" x="100.000000" y="295.000366" width="219.000000" height="220.000000" filterUnits="userSpaceOnUse" color-interpolation-filters="sRGB">
			<feFlood flood-opacity="0" result="BackgroundImageFix"/>
			<feBlend mode="normal" in="SourceGraphic" in2="BackgroundImageFix" result="shape"/>
			<feGaussianBlur stdDeviation="7.33333" result="effect_layerBlur_1"/>
		</filter>
	</defs>
	<g opacity="0.280000" filter="url(#filter_1_874_dd)">
		<mask id="mask_1_874" fill="white">
			<path id="Subtraction 2" d="M22 24.0003L397 24.0003L397 391L396.884 391C395.894 399.447 388.712 406 380 406L313 406C304.288 406 297.106 399.447 296.116 391L295.899 391C289.231 349.053 253.087 317 209.5 317C165.913 317 129.769 349.053 123.101 391L122.884 391C121.894 399.447 114.712 406 106 406L39 406C30.2876 406 23.1064 399.447 22.1162 391L22 391L22 389.005L22 389L22 322L22 321.995L22 24.0003Z" clip-rule="evenodd" fill="" fill-opacity="1.000000" fill-rule="evenodd"/>
		</mask>
		<path id="Subtraction 2" d="M22 24.0003L397 24.0003L397 391L396.884 391C395.894 399.447 388.712 406 380 406L313 406C304.288 406 297.106 399.447 296.116 391L295.899 391C289.231 349.053 253.087 317 209.5 317C165.913 317 129.769 349.053 123.101 391L122.884 391C121.894 399.447 114.712 406 106 406L39 406C30.2876 406 23.1064 399.447 22.1162 391L22 391L22 389.005L22 389L22 322L22 321.995L22 24.0003Z" clip-rule="evenodd" fill="#4A4B4D" fill-opacity="1.000000" fill-rule="evenodd" mask="url(#mask_1_874)"/>
	</g>
	<path id="Subtraction 2" d="" clip-rule="evenodd" fill="#707070" fill-opacity="0.000000" fill-rule="evenodd"/>
	<mask id="mask_1_875" fill="white">
		<path id="Shaped subtraction" d="M22 0.000335693L397 0.000335693L397 367L396.884 367C395.894 375.447 388.712 382 380 382L313 382C304.288 382 297.106 375.447 296.116 367L295.899 367C289.231 325.053 253.087 293 209.5 293C165.913 293 129.769 325.053 123.101 367L122.884 367C121.894 375.447 114.712 382 106 382L39 382C30.2876 382 23.1064 375.447 22.1162 367L22 367L22 365.005L22 365L22 298L22 297.995L22 0.000335693Z" clip-rule="evenodd" fill="" fill-opacity="1.000000" fill-rule="evenodd"/>
	</mask>
	<path id="Shaped subtraction" d="M22 0.000335693L397 0.000335693L397 367L396.884 367C395.894 375.447 388.712 382 380 382L313 382C304.288 382 297.106 375.447 296.116 367L295.899 367C289.231 325.053 253.087 293 209.5 293C165.913 293 129.769 325.053 123.101 367L122.884 367C121.894 375.447 114.712 382 106 382L39 382C30.2876 382 23.1064 375.447 22.1162 367L22 367L22 365.005L22 365L22 298L22 297.995L22 0.000335693Z" clip-rule="evenodd" fill="#FC6011" fill-opacity="1.000000" fill-rule="evenodd" mask="url(#mask_1_875)"/>
	<path id="Shaped subtraction" d="" clip-rule="evenodd" fill="#707070" fill-opacity="0.000000" fill-rule="evenodd"/>
	<mask id="mask1_887" mask-type="alpha" maskUnits="userSpaceOnUse" x="21.999512" y="0.000000" width="375.000000" height="382.000000">
		<g opacity="0.350000">
			<mask id="mask_1_887" fill="white">
				<path id="Subtraction 3" d="M21.9995 0L397 0L397 367L396.883 367C395.893 375.446 388.712 382 380 382L313 382C304.287 382 297.106 375.446 296.116 367L295.898 367C289.23 325.053 253.087 293 209.5 293C165.912 293 129.769 325.053 123.101 367L122.883 367C121.893 375.446 114.712 382 106 382L38.9995 382C30.2871 382 23.106 375.446 22.1157 367L21.9995 367L21.9995 365.005L21.9995 365L21.9995 298L21.9995 297.995L21.9995 0Z" clip-rule="evenodd" fill="" fill-opacity="1.000000" fill-rule="evenodd"/>
			</mask>
			<path id="Subtraction 3" d="M21.9995 0L397 0L397 367L396.883 367C395.893 375.446 388.712 382 380 382L313 382C304.287 382 297.106 375.446 296.116 367L295.898 367C289.23 325.053 253.087 293 209.5 293C165.912 293 129.769 325.053 123.101 367L122.883 367C121.893 375.446 114.712 382 106 382L38.9995 382C30.2871 382 23.106 375.446 22.1157 367L21.9995 367L21.9995 365.005L21.9995 365L21.9995 298L21.9995 297.995L21.9995 0Z" clip-rule="evenodd" fill="#4A4B4D" fill-opacity="1.000000" fill-rule="evenodd" mask="url(#mask_1_887)"/>
			<path id="Subtraction 3" d="" clip-rule="evenodd" fill="#707070" fill-opacity="0.000000" fill-rule="evenodd"/>
		</g>
	</mask>
	<g mask="url(#mask1_887)">
		<g opacity="0.140000">
			<circle id="Ellipse 3" cx="50.000000" cy="34.000000" r="89.000000" fill="#FFFFFF" fill-opacity="1.000000"/>
			<circle id="Ellipse 3" cx="50.000000" cy="34.000000" r="88.500000" stroke="#707070" stroke-opacity="0" stroke-width="1.000000"/>
		</g>
		<g opacity="0.140000">
			<circle id="Ellipse 5" cx="332.500000" cy="-14.500000" r="144.500000" fill="#FFFFFF" fill-opacity="1.000000"/>
			<circle id="Ellipse 5" cx="332.500000" cy="-14.500000" r="144.000000" stroke="#707070" stroke-opacity="0" stroke-width="1.000000"/>
		</g>
		<g opacity="0.140000">
			<circle id="Ellipse 4" cx="95.500000" cy="129.500031" r="52.500000" fill="#FFFFFF" fill-opacity="1.000000"/>
			<circle id="Ellipse 4" cx="95.500000" cy="129.500031" r="52.000000" stroke="#707070" stroke-opacity="0" stroke-width="1.000000"/>
		</g>
		<g opacity="0.210000">
			<circle id="Ellipse 6" cx="182.000000" cy="127.000031" r="9.000000" fill="#FFFFFF" fill-opacity="1.000000"/>
			<circle id="Ellipse 6" cx="182.000000" cy="127.000031" r="8.500000" stroke="#707070" stroke-opacity="0" stroke-width="1.000000"/>
		</g>
		<g opacity="0.210000">
			<circle id="Ellipse 8" cx="181.500000" cy="225.500031" r="6.500000" fill="#FFFFFF" fill-opacity="1.000000"/>
			<circle id="Ellipse 8" cx="181.500000" cy="225.500031" r="6.000000" stroke="#707070" stroke-opacity="0" stroke-width="1.000000"/>
		</g>
		<g opacity="0.210000">
			<circle id="Ellipse 9" cx="393.500000" cy="338.500031" r="10.500000" fill="#FFFFFF" fill-opacity="1.000000"/>
			<circle id="Ellipse 9" cx="393.500000" cy="338.500031" r="10.000000" stroke="#707070" stroke-opacity="0" stroke-width="1.000000"/>
		</g>
		<g opacity="0.210000">
			<circle id="Ellipse 7" cx="260.500000" cy="144.500031" r="14.500000" fill="#FFFFFF" fill-opacity="1.000000"/>
			<circle id="Ellipse 7" cx="260.500000" cy="144.500031" r="14.000000" stroke="#707070" stroke-opacity="0" stroke-width="1.000000"/>
		</g>
		<g opacity="0.140000">
			<circle id="Ellipse 2" cx="50.000000" cy="335.000031" r="116.000000" fill="#FFFFFF" fill-opacity="1.000000"/>
			<circle id="Ellipse 2" cx="50.000000" cy="335.000031" r="115.500000" stroke="#707070" stroke-opacity="0" stroke-width="1.000000"/>
		</g>
		<g opacity="0.180000">
			<path id="Path 2987" d="M446.12 256.172C446.12 260.344 442.408 263.749 437.879 263.749L254.241 263.749C249.712 263.749 246 260.344 246 256.172C246 252.017 249.712 248.629 254.241 248.629L437.879 248.629C442.408 248.629 446.12 252.017 446.12 256.172ZM355.672 161.161C355.417 156.069 351.228 152 346.051 152C340.909 152 336.738 156.035 336.465 161.109C339.547 160.735 342.68 160.531 345.864 160.531C349.167 160.531 352.454 160.752 355.672 161.161ZM430.489 241.937L261.631 241.937C265.036 198.28 301.525 163.902 346.051 163.902C390.594 163.902 427.083 198.28 430.489 241.937ZM336.397 171.326C336.397 171.326 289.062 181.644 274.929 234.054L292.825 234.054C292.825 234.054 302.734 190.345 336.397 171.326Z" fill="#FFFFFF" fill-opacity="1.000000" fill-rule="nonzero"/>
		</g>
	</g>
</svg>
